<svg id="Layer_1" data-name="Layer 1" xmlns="http://www.w3.org/2000/svg" viewBox="0 0 460 528.15"><defs><style>.cls-1{fill:none;stroke:#fff;stroke-width:6px;}.cls-2{fill:#fff;}</style></defs><path class="cls-1" d="M230,146.49c111.66,0,167,36.85,167,125.66v256"/><path class="cls-1" d="M230,146.49c-111.66,0-167,36.85-167,125.66v256"/><path class="cls-2" d="M127.92,311.7l-.24,1.1a5,5,0,0,1-2.06,3.32,8.2,8.2,0,0,1-4.13.86h-3.27v-1.3h.92a4.13,4.13,0,0,0,2.35-.57,3.5,3.5,0,0,0,1.2-2c.19-.83.33-1.42.43-1.77a6.77,6.77,0,0,0,.19-.87c.1-.38.16-.65.19-.81a8.43,8.43,0,0,0,.2-1c.09-.45.16-.76.19-.92s.09-.52.19-1,.22-.92.29-1.2q1-5,7.87-5.19v-.19a14.5,14.5,0,0,1-3.31-.91,8.35,8.35,0,0,1-4-2.79,7.33,7.33,0,0,1-1.49-4.6,8,8,0,0,1,.91-3.89,7.21,7.21,0,0,1,2.54-2.69,12.8,12.8,0,0,1,3.51-1.49,15.78,15.78,0,0,1,3.93-.48h14.31v1.3h-4.56v31.05h4.56V317H134.45v-1.3h4.8V301H135.5a8.71,8.71,0,0,0-4.36.77c-.8.51-1.43,1.69-1.88,3.55s-.62,2.85-.62,2.88c-.13.77-.27,1.45-.43,2.06A9.92,9.92,0,0,0,127.92,311.7Zm7.58-12.05h3.75v-15h-3.46a7.31,7.31,0,0,0-5.37,2,7.1,7.1,0,0,0-2,5.28,8.43,8.43,0,0,0,1.82,5.61,6.57,6.57,0,0,0,5.26,2.11Zm53.73-4V297h-3.6v18.76h3.6V317H177.71v-1.3h3.36V296.92h-9.74v18.76h3.36V317H163.17v-1.3h3.6V296.92h-3.6v-1.3Zm14.64-.43a10.31,10.31,0,0,1,7.88,3.12,12.17,12.17,0,0,1-.1,15.93,11.57,11.57,0,0,1-15.7.1,11.32,11.32,0,0,1-2.88-8.06,11,11,0,0,1,3-8,10.42,10.42,0,0,1,7.8-3.12Zm0,20.88a4.49,4.49,0,0,0,2.88-1,6.16,6.16,0,0,0,1.87-2.55,16.9,16.9,0,0,0,.91-3.12,17.61,17.61,0,0,0,.29-3.16,17.8,17.8,0,0,0-.29-3.17,14.73,14.73,0,0,0-.86-3.12,5.57,5.57,0,0,0-1.83-2.55,4.77,4.77,0,0,0-5.81.05,6,6,0,0,0-1.82,2.55,15.3,15.3,0,0,0-.91,3.12,17.17,17.17,0,0,0-.29,3.12,13.1,13.1,0,0,0,1.54,6.86,4.72,4.72,0,0,0,4.28,2.94Zm52.38-20.45V297h-3.6v18.76h3.6V317H218.53v-1.3h3.6V296.92h-3.6v-1.3h11.52v1.3h-3.36v18.76h8.4V296.92h-3.36v-1.3H243v1.3h-3.36v18.76H248V296.92h-3.36v-1.3Zm13.78-.43a8,8,0,0,1,6.44,2.64,9.82,9.82,0,0,1,2.3,6.77H265a5.47,5.47,0,0,0,0,.81v.87a13.66,13.66,0,0,0,1.53,6.57,5.46,5.46,0,0,0,5.14,2.64q4.17,0,6-4.22l1.05.77a8.45,8.45,0,0,1-8.25,5.32,9.66,9.66,0,0,1-7.59-3.07,11.57,11.57,0,0,1-2.73-7.92,12,12,0,0,1,2.69-7.92,9,9,0,0,1,7.16-3.29Zm-4.89,8.11H274a10.94,10.94,0,0,0-1.06-4.46,3.55,3.55,0,0,0-3.26-2.4c-2.44,0-3.94,2.25-4.55,6.83Zm19.22,14.06a3.92,3.92,0,0,1-2.5-.76,3.17,3.17,0,0,1-.24-4.18,2.4,2.4,0,0,1,1.88-.82,2.14,2.14,0,0,1,2.2,2.08v.13a2,2,0,0,1-1.29,2,.58.58,0,0,0,.38.1q2.11,0,3.36-2.84c.13-.41.27-1,.43-1.68q.48-3.41.77-8.88V301.3a8.53,8.53,0,0,1,.1-1.2c0-.25,0-.72,0-1.3v-1.34l-4.22-.48v-1.3h20.06V297h-3.6v18.76h3.6V317H293.82v-1.3h3.36V296.92H291c0,.6-.08,1.48-.14,2.64,0,.64-.08,1.44-.15,2.4a11.76,11.76,0,0,1,0,1.2,11,11,0,0,1,0,1.15c-.1,1.47-.2,2.78-.29,3.93-.1,1-.19,1.84-.29,2.55a14.66,14.66,0,0,1-.58,2.35,6.9,6.9,0,0,1-1,2.21,5,5,0,0,1-4.18,2Zm26.4-3A2.77,2.77,0,0,1,313,311.2a2.44,2.44,0,0,1,.66,0,3.17,3.17,0,0,1,2.11.72,3,3,0,0,1,.91,2.5,3.09,3.09,0,0,1-.91,2.49,3.22,3.22,0,0,1-4.18,0,3.2,3.2,0,0,1-.9-2.49Zm12.58,0a2.77,2.77,0,0,1,2.92-3.22,3.21,3.21,0,0,1,2.12.72,3,3,0,0,1,.91,2.5,3.12,3.12,0,0,1-.91,2.49,3.22,3.22,0,0,1-4.18,0,3.16,3.16,0,0,1-.9-2.49Zm12.52,0a2.77,2.77,0,0,1,2.3-3.19,3.33,3.33,0,0,1,.63,0,3.17,3.17,0,0,1,2.11.72,3,3,0,0,1,.92,2.5,3.05,3.05,0,0,1-.92,2.49,3.21,3.21,0,0,1-4.17,0,3.17,3.17,0,0,1-.91-2.49Z"/></svg>