<svg id="Layer_1" data-name="Layer 1" xmlns="http://www.w3.org/2000/svg" viewBox="0 0 460 529.15"><defs><style>.cls-1{fill:#fff;}.cls-2{fill:none;stroke:#fff;stroke-width:6px;}</style></defs><path class="cls-1" d="M155.48,255.73h-4.56v31.06h4.56v1.29H141.56v-1.29h4.56V271.57H130.23v15.22h4.56v1.29H120.87v-1.29h4.56V255.73h-4.56v-1.29h13.92v1.29h-4.56v14.55h15.89V255.73h-4.56v-1.29h13.92Zm7.23,45.41a3.94,3.94,0,0,1-2.74-1,3.22,3.22,0,0,1-1.05-2.54,2.9,2.9,0,0,1,.76-2.12,2.28,2.28,0,0,1,1.83-.86,2.51,2.51,0,0,1,1.73.62,2.16,2.16,0,0,1,.67,1.64,2.39,2.39,0,0,1-1.54,2.44,1.07,1.07,0,0,0,.87.29q2.77,0,6-8.54l.91-2.31L160.26,268h-3.6v-1.3H168.9V268h-3.74l7.24,15.65L179,268h-3.36v-1.3h8.45V268h-3.6l-9.41,22.18c-1,2.36-1.68,3.87-2,4.51-.45.93-.82,1.65-1.1,2.16a15.57,15.57,0,0,1-1.3,2,5.65,5.65,0,0,1-1.82,1.72,4.37,4.37,0,0,1-2.15.57Zm59.82-34.42V268h-3.6v18.77h3.6v1.29H211v-1.29h3.36v-8.64h-9.6v8.64h3.36v1.29H196.61v-1.29h3.6V268h-3.6v-1.3h11.52V268h-3.36v8.83h9.6V268H211v-1.3Zm29.76,0V268h-3.6v18.77h3.6v1.29H240.77v-1.29h3.36V271.91l-9.6,13.58v1.3h3.36v1.29H226.37v-1.29H230V268h-3.6v-1.3h11.52V268h-3.36v15.22l9.6-13.59V268H240.8v-1.3Zm27.85,0V268h-3.6v18.77h3.6v1.29H268.38v-1.29H272v-8.64a10.13,10.13,0,0,1-3.46,1.44,8.49,8.49,0,0,1-2.3.29c-2.66,0-4.64-.6-6-1.78s-1.92-3.09-1.92-5.71V268h-3.6v-1.3h11.52V268h-3.36v5a6.43,6.43,0,0,0,1,3.84,4,4,0,0,0,3.4,1.3,10.77,10.77,0,0,0,3.41-.63,7,7,0,0,0,1.3-.67V268h-3.36v-1.3Zm13.78-.43a8,8,0,0,1,6.43,2.64,9.82,9.82,0,0,1,2.3,6.77H288.88a4.52,4.52,0,0,0-.05.82v.86a13.57,13.57,0,0,0,1.54,6.58,5.46,5.46,0,0,0,5.13,2.64q4.19,0,6-4.23l1.06.77a8.45,8.45,0,0,1-8.26,5.33,9.64,9.64,0,0,1-7.58-3.07,11.56,11.56,0,0,1-2.74-7.92,12,12,0,0,1,2.69-7.92,9,9,0,0,1,7.25-3.27ZM289,274.4h8.83a11,11,0,0,0-1.05-4.46,3.59,3.59,0,0,0-3.27-2.4Q289.93,267.54,289,274.4Zm19.06,11.09a3.06,3.06,0,0,1,.86-2.49,3.1,3.1,0,0,1,2.06-.72,3.21,3.21,0,0,1,2.12.72,3,3,0,0,1,.91,2.49,3.14,3.14,0,0,1-.91,2.5,3.1,3.1,0,0,1-2.12.77,3,3,0,0,1-2.06-.77,3.15,3.15,0,0,1-.84-2.5Zm12.57,0a2.77,2.77,0,0,1,2.31-3.18,3.82,3.82,0,0,1,2.73.69,3,3,0,0,1,.91,2.49,2.91,2.91,0,0,1-2.53,3.25,2.43,2.43,0,0,1-.47,0,3,3,0,0,1-2.06-.77,3.17,3.17,0,0,1-.87-2.5Zm12.53,0a3.05,3.05,0,0,1,5-2.49,3,3,0,0,1,.91,2.49,2.91,2.91,0,0,1-2.53,3.25,2.43,2.43,0,0,1-.47,0A3,3,0,0,1,334,288a3.2,3.2,0,0,1-.82-2.51ZM195.94,315.72V317h-3.6v18.77h3.6v1.29H184.42v-1.29h3.36v-8.64h-9.6v8.64h3.36v1.29H170v-1.29h3.6V317H170v-1.3h11.52V317h-3.36v8.83h9.6V317H184.4v-1.3Zm30.24,0V317h-3.6v18.77h3.6v1.29H214.66v-1.29H218V320.91l-9.6,13.58v1.3h3.36v1.29h-11.5v-1.29h3.6V317h-3.6v-1.3h11.52V317h-3.36v15.22l9.6-13.59V317h-3.36v-1.3Zm28.33,0V317h-3.6v18.77h3.6v1.29H242.75v-1.29h3.6v-8.64a10.13,10.13,0,0,1-3.46,1.44,8.49,8.49,0,0,1-2.3.29c-2.66,0-4.64-.6-6-1.78s-1.92-3.09-1.92-5.71V317h-3.6v-1.3h11.52V317h-3.36v5a6.43,6.43,0,0,0,1,3.84,4,4,0,0,0,3.4,1.3,10.77,10.77,0,0,0,3.41-.63,7,7,0,0,0,1.3-.67V317H243v-1.3Zm14.26-.43a8,8,0,0,1,6.43,2.64,9.82,9.82,0,0,1,2.3,6.77H263.73a4.52,4.52,0,0,0-.05.82v.86a13.57,13.57,0,0,0,1.54,6.58,5.46,5.46,0,0,0,5.13,2.64q4.18,0,6-4.23l1.06.77a8.45,8.45,0,0,1-8.26,5.33,9.64,9.64,0,0,1-7.58-3.07,11.56,11.56,0,0,1-2.74-7.92,12,12,0,0,1,2.69-7.92,9,9,0,0,1,7.25-3.27Zm-4.9,8.11h8.83a11,11,0,0,0-1.05-4.46,3.59,3.59,0,0,0-3.27-2.4q-3.6,0-4.51,6.86Zm19.06,11.09a3.06,3.06,0,0,1,.86-2.49,3.1,3.1,0,0,1,2.06-.72A3.22,3.22,0,0,1,288,332a3,3,0,0,1,.91,2.49,2.91,2.91,0,0,1-3,3.28,3,3,0,0,1-2.06-.77,3.2,3.2,0,0,1-.89-2.51Zm12.57,0a2.77,2.77,0,0,1,2.31-3.18,3.82,3.82,0,0,1,2.73.69,3,3,0,0,1,.91,2.49,2.91,2.91,0,0,1-2.53,3.25,2.43,2.43,0,0,1-.47,0,3,3,0,0,1-2.06-.77,3.17,3.17,0,0,1-.89-2.5Zm12.53,0a3.1,3.1,0,0,1,.86-2.49,3.13,3.13,0,0,1,2.07-.72,3.17,3.17,0,0,1,2.11.72,3,3,0,0,1,.91,2.49,2.91,2.91,0,0,1-2.53,3.25,2.43,2.43,0,0,1-.47,0,3,3,0,0,1-2.07-.77,3.21,3.21,0,0,1-.91-2.5Z"/><path class="cls-2" d="M230,147.49c111.66,0,167,36.85,167,125.66v256"/><path class="cls-2" d="M230,147.49c-111.66,0-167,36.85-167,125.66v256"/></svg>