<svg id="Layer_1" data-name="Layer 1" xmlns="http://www.w3.org/2000/svg" viewBox="0 0 460 600"><defs><style>.cls-1{fill:#fff;}.cls-2{fill:none;stroke:#fff;stroke-width:6px;}</style></defs><path class="cls-1" d="M113.16,296.38H108.6v31.06h4.56v1.29H99.24v-1.29h4.56V299L93.05,329.16H91.76L81.68,299.07v27.69l4.56.68v1.29H75.15v-1.29l5.13-.68V296.38H75.72v-1.3h9.84l8.69,26.6,9.46-26.6h9.45Zm13.54,10.56a8,8,0,0,1,6.43,2.64,9.78,9.78,0,0,1,2.3,6.77H121.66a4.85,4.85,0,0,0,0,.81V318a13.46,13.46,0,0,0,1.54,6.57,5.45,5.45,0,0,0,5.13,2.64c2.79,0,4.79-1.4,6-4.22l1.06.77a8.46,8.46,0,0,1-8.26,5.33A9.62,9.62,0,0,1,119.5,326a11.55,11.55,0,0,1-2.74-7.92,12.08,12.08,0,0,1,2.69-7.92A9,9,0,0,1,126.7,306.94Zm-4.9,8.11h8.83a10.94,10.94,0,0,0-1-4.46,3.58,3.58,0,0,0-3.27-2.4Q122.71,308.19,121.8,315.05Zm34.7,8.16,1,.63a10.5,10.5,0,0,1-3.45,3.84,8.67,8.67,0,0,1-4.75,1.39,9.78,9.78,0,0,1-7.59-3.17,11.47,11.47,0,0,1-2.83-7.87,11.18,11.18,0,0,1,2.88-8,10.68,10.68,0,0,1,11.86-2.21,6.71,6.71,0,0,1,3,2.69,3.93,3.93,0,0,1,.62,2,2.57,2.57,0,0,1-.72,1.82,2.23,2.23,0,0,1-1.72.72,2.37,2.37,0,0,1-1.68-.62,2.21,2.21,0,0,1-.63-1.64,3.11,3.11,0,0,1,1.83-2.73,5.26,5.26,0,0,0-4.32-1.83,5,5,0,0,0-3.08,1,5.73,5.73,0,0,0-2,2.45,15.06,15.06,0,0,0-.92,3.07,17.7,17.7,0,0,0-.28,3.22,12.77,12.77,0,0,0,1.63,6.58,5.51,5.51,0,0,0,5.09,2.73C153,327.29,155,325.93,156.5,323.21Zm12.24,4.23V308.86h-5.52l-1.53,6.86h-1.3v-8.35h21.27v8.35h-1.3l-1.54-6.86H173.3v18.58h3.6v1.29H165.14v-1.29Zm27.07-20.5a10.27,10.27,0,0,1,7.87,3.12,11,11,0,0,1,2.93,7.92,11.19,11.19,0,0,1-3,8,11.56,11.56,0,0,1-15.7.09A11.3,11.3,0,0,1,185,318a11,11,0,0,1,3-8A10.39,10.39,0,0,1,195.81,306.94Zm-.05,20.88a4.47,4.47,0,0,0,2.88-1,6.2,6.2,0,0,0,1.88-2.54,17.63,17.63,0,0,0,.91-3.12,18,18,0,0,0,.29-3.17,17.3,17.3,0,0,0-.29-3.17,14.63,14.63,0,0,0-.87-3.12,5.44,5.44,0,0,0-1.82-2.54,4.55,4.55,0,0,0-2.93-1,4.45,4.45,0,0,0-2.88,1,5.93,5.93,0,0,0-1.82,2.55,15.22,15.22,0,0,0-.91,3.12,16.62,16.62,0,0,0-.29,3.12,13.23,13.23,0,0,0,1.53,6.86A4.75,4.75,0,0,0,195.76,327.82Zm43.43-4.61,1,.63a10.5,10.5,0,0,1-3.45,3.84,8.68,8.68,0,0,1-4.76,1.39,9.77,9.77,0,0,1-7.58-3.17,11.47,11.47,0,0,1-2.83-7.87,11.18,11.18,0,0,1,2.88-8,10.67,10.67,0,0,1,11.85-2.21,6.74,6.74,0,0,1,3,2.69,4,4,0,0,1,.62,2,2.57,2.57,0,0,1-.72,1.82,2.26,2.26,0,0,1-1.73.72,2.4,2.4,0,0,1-1.68-.62,2.24,2.24,0,0,1-.62-1.64,3.11,3.11,0,0,1,1.82-2.73,5.24,5.24,0,0,0-4.32-1.83,5,5,0,0,0-3.07,1,5.82,5.82,0,0,0-2,2.45,15,15,0,0,0-.91,3.07,17.69,17.69,0,0,0-.29,3.22,12.77,12.77,0,0,0,1.64,6.58,5.49,5.49,0,0,0,5.08,2.73Q236.89,327.29,239.19,323.21Zm27,12.29h-1.3l-1.78-6.77H246.15l-1.78,6.77h-1.29v-8.06h3.07a12.24,12.24,0,0,0,3.12-4.76,26,26,0,0,0,1.06-6.28c0-.64.08-1.44.14-2.4s0-1.88.05-2.36l.09-2.49-4.17-.48v-1.3h20.11v1.3H263v18.77h3.22Zm-7.78-26.83h-6.34c0,.19-.06.49-.09.91v.91l-.29,5.33q-.39,7.88-3.55,11.62h10.27Zm20.09,8.4a13.17,13.17,0,0,1,4.61.72V312a3.93,3.93,0,0,0-.91-2.88,3.65,3.65,0,0,0-2.83-1,6.13,6.13,0,0,0-3.94,1.25,3.07,3.07,0,0,1,1.25.81,2.74,2.74,0,0,1,.53,1.73,2.35,2.35,0,0,1-.68,1.73,2.31,2.31,0,0,1-1.72.67,2.09,2.09,0,0,1-1.68-.72,2.4,2.4,0,0,1-.68-1.78,4,4,0,0,1,2.55-3.6,11.23,11.23,0,0,1,5.18-1.34q7.48,0,7.49,5.57v12.57c0,1.38.51,2.07,1.54,2.07a2.05,2.05,0,0,0,1.34-.53,8.08,8.08,0,0,0,.86-1l.77.77a5.46,5.46,0,0,1-4.56,2.74,5.32,5.32,0,0,1-2.49-.58,3.86,3.86,0,0,1-1.78-2,9.71,9.71,0,0,1-6.53,2.59,6.7,6.7,0,0,1-4.56-1.58,5.6,5.6,0,0,1-1.77-4.32,5.18,5.18,0,0,1,2.3-4.7A10.4,10.4,0,0,1,278.48,317.07Zm-3.21,5.61a4.65,4.65,0,0,0,1,3.17,3.91,3.91,0,0,0,3,1.15,4.72,4.72,0,0,0,2.06-.43,5,5,0,0,0,1.73-1.1V319c-.61-.23-1.22-.42-1.82-.58a12.54,12.54,0,0,0-1.92-.14,3.89,3.89,0,0,0-3.08,1.2A4.73,4.73,0,0,0,275.27,322.68ZM304,306.94a8,8,0,0,1,6.43,2.64,9.83,9.83,0,0,1,2.3,6.77H299a4,4,0,0,0-.05.81V318a13.57,13.57,0,0,0,1.53,6.57,5.48,5.48,0,0,0,5.14,2.64c2.78,0,4.78-1.4,6-4.22l1.06.77a8.47,8.47,0,0,1-8.26,5.33,9.62,9.62,0,0,1-7.58-3.08,11.55,11.55,0,0,1-2.74-7.92,12.08,12.08,0,0,1,2.69-7.92A9,9,0,0,1,304,306.94Zm-4.9,8.11H308a11.1,11.1,0,0,0-1-4.46,3.58,3.58,0,0,0-3.27-2.4Q300,308.19,299.13,315.05ZM324,327.44V308.86h-5.52L317,315.72h-1.29v-8.35H337v8.35h-1.29l-1.54-6.86H328.6v18.58h3.6v1.29H320.44v-1.29ZM358,323.21l1,.63a10.5,10.5,0,0,1-3.45,3.84,8.68,8.68,0,0,1-4.76,1.39,9.77,9.77,0,0,1-7.58-3.17,11.47,11.47,0,0,1-2.83-7.87,11.18,11.18,0,0,1,2.88-8A10.67,10.67,0,0,1,355,307.85a6.74,6.74,0,0,1,3,2.69,4,4,0,0,1,.62,2,2.57,2.57,0,0,1-.72,1.82,2.26,2.26,0,0,1-1.73.72,2.4,2.4,0,0,1-1.68-.62,2.24,2.24,0,0,1-.62-1.64,3.11,3.11,0,0,1,1.82-2.73,5.24,5.24,0,0,0-4.32-1.83,5,5,0,0,0-3.07,1,5.82,5.82,0,0,0-2,2.45,15,15,0,0,0-.91,3.07,17.69,17.69,0,0,0-.29,3.22,12.77,12.77,0,0,0,1.64,6.58,5.49,5.49,0,0,0,5.08,2.73Q355.67,327.29,358,323.21Zm26.88-15.84v1.3h-3.6v18.77h3.6v1.29H373.09v-1.29h3.6V319h-2.93a3.12,3.12,0,0,0-2.35.76,4.63,4.63,0,0,0-1.05,2.4l-.72,3.8c-.36,1.82-1.68,2.73-4,2.73h-4.46v-1.29h1.49a2.85,2.85,0,0,0,1.77-.48,2.33,2.33,0,0,0,.77-1.35l.62-3.07a5.37,5.37,0,0,1,1.68-3.12,7.37,7.37,0,0,1,3.56-1.1v-.2a9.89,9.89,0,0,1-4.47-1.34,3.94,3.94,0,0,1-1.87-3.55,4.77,4.77,0,0,1,2.45-4.47,11.53,11.53,0,0,1,5.76-1.39Zm-8.16,1.3h-2.45c-1.76,0-3,.45-3.69,1.34a4.67,4.67,0,0,0-1.06,3.22q0,4.51,4.66,4.51h2.54Z"/><path class="cls-2" d="M62.5,528.59V200.25c.32-7,5.71-22.46,24.74-28.55,23.8-7.62,47.59-21.89,53.3-27.6s28.55-36.17,89.46-36.17"/><path class="cls-2" d="M397.5,528.59V200.25c-.32-7-5.71-22.46-24.74-28.55-23.8-7.62-47.59-21.89-53.3-27.6S290.91,107.93,230,107.93"/></svg>