<svg id="Layer_1" data-name="Layer 1" xmlns="http://www.w3.org/2000/svg" viewBox="0 0 460 600"><defs><style>.cls-1{fill:#fff;}.cls-2{fill:none;stroke:#fff;stroke-width:6px;}</style></defs><path class="cls-1" d="M103.51,237.6v-1.29h1.87a6.3,6.3,0,0,0,5-2,7.88,7.88,0,0,0,1.77-5.33,7,7,0,0,0-1.53-4.84,5.77,5.77,0,0,0-4.56-1.73,6.69,6.69,0,0,0-4.52,1.53,7.82,7.82,0,0,0-2.35,3.65,18.25,18.25,0,0,0-.57,4.75H97.18V221h1.44l.48,4.18q2.3-4.17,8.3-4.18a12.34,12.34,0,0,1,7,1.88,6.36,6.36,0,0,1,2.83,5.71,7.31,7.31,0,0,1-2.3,5.57,10.27,10.27,0,0,1-5.76,2.64V237a12.46,12.46,0,0,1,6.67,2.49,7.17,7.17,0,0,1,2.54,5.91,9.1,9.1,0,0,1-3.26,7.2,11.5,11.5,0,0,1-7.68,2.78q-6.72,0-9.26-5.33v5.33H96.7V244.85l1.44,0A13.82,13.82,0,0,0,99.72,250a7.24,7.24,0,0,0,3.55,3.31,7.33,7.33,0,0,0,3.31.72,5.65,5.65,0,0,0,5-2.59,10.82,10.82,0,0,0,1.72-6.05q0-7.77-7.92-7.78Zm40.32,24.2h-1.29L140.76,255H123.82L122,261.8h-1.3v-8.07h3.08a12.44,12.44,0,0,0,3.12-4.75,26,26,0,0,0,1-6.29q0-1,.15-2.4c0-1.09,0-1.87,0-2.35l.1-2.5L124.1,235v-1.29h20.12V235h-3.6v18.77h3.21ZM136.06,235h-6.34c0,.2-.06.5-.1.92v.91l-.28,5.33c-.26,5.24-1.44,9.12-3.56,11.61h10.28Zm22-1.72a8,8,0,0,1,6.43,2.64,9.81,9.81,0,0,1,2.3,6.76H153a4.06,4.06,0,0,0-.05.82v.86a13.59,13.59,0,0,0,1.53,6.58,5.48,5.48,0,0,0,5.14,2.64q4.17,0,6-4.22l1.06.76a8.46,8.46,0,0,1-8.26,5.33,9.61,9.61,0,0,1-7.58-3.07,11.55,11.55,0,0,1-2.74-7.92,12.08,12.08,0,0,1,2.69-7.92A9,9,0,0,1,158.07,233.24Zm-4.9,8.11H162a11.2,11.2,0,0,0-1.05-4.47,3.58,3.58,0,0,0-3.27-2.4Q154.08,234.48,153.17,241.35Zm34.7,8.16,1,.62a10.5,10.5,0,0,1-3.45,3.84,8.59,8.59,0,0,1-4.75,1.39A9.77,9.77,0,0,1,173,252.2a11.5,11.5,0,0,1-2.83-7.88,11.15,11.15,0,0,1,2.88-8A10.68,10.68,0,0,1,185,234.15a6.66,6.66,0,0,1,3,2.69,3.9,3.9,0,0,1,.62,2,2.59,2.59,0,0,1-.72,1.83,2.23,2.23,0,0,1-1.72.72,2.33,2.33,0,0,1-1.68-.63,2.18,2.18,0,0,1-.63-1.63,3.13,3.13,0,0,1,1.83-2.74,5.29,5.29,0,0,0-4.32-1.82,5,5,0,0,0-3.08,1,5.67,5.67,0,0,0-2,2.45,14.88,14.88,0,0,0-.92,3.07,17.62,17.62,0,0,0-.28,3.22,12.73,12.73,0,0,0,1.63,6.57,5.49,5.49,0,0,0,5.09,2.74C184.32,253.59,186.34,252.23,187.87,249.51ZM204,233.67V235h-3.6v8.26a18,18,0,0,1,4.22-.38,16.63,16.63,0,0,1,2.93.24,11.44,11.44,0,0,1,2.69.81,4.6,4.6,0,0,1,2.11,1.78,5,5,0,0,1,.77,2.83,5.59,5.59,0,0,1-2.35,4.94A10,10,0,0,1,205,255H192.24v-1.3h3.6V235h-3.6v-1.29Zm-3.6,10.89v9.17h3.07a4.68,4.68,0,0,0,3.6-1.34,5.43,5.43,0,0,0,1.25-3.75c0-3-1.52-4.51-4.56-4.51A17.84,17.84,0,0,0,200.4,244.56Zm30,10.85a3.82,3.82,0,0,1-2.49-.77,2.77,2.77,0,0,1-.92-2.25,2.8,2.8,0,0,1,.68-1.92,2.36,2.36,0,0,1,1.87-.82,2.15,2.15,0,0,1,2.21,2.21,2,2,0,0,1-1.3,2,.57.57,0,0,0,.38.09q2.11,0,3.36-2.83c.13-.41.28-1,.44-1.68q.48-3.41.76-8.88v-1.25c0-.54.07-.94.1-1.2s.05-.72.05-1.29.05-1.06.05-1.35l-4.23-.48v-1.29h20.07V235h-3.6v18.77h3.6V255H239.93v-1.3h3.36V235h-6.15c0,.61-.08,1.49-.14,2.64q0,1-.15,2.4c0,.29,0,.69,0,1.2a10.62,10.62,0,0,1-.05,1.16c-.1,1.47-.19,2.78-.29,3.93-.1,1-.19,1.84-.29,2.55a14.87,14.87,0,0,1-.57,2.35,7.43,7.43,0,0,1-1,2.21,5,5,0,0,1-4.18,2Zm34.8-22.17a8,8,0,0,1,6.44,2.64,9.81,9.81,0,0,1,2.3,6.76H260.18a5.31,5.31,0,0,0,0,.82v.86a13.59,13.59,0,0,0,1.53,6.58,5.48,5.48,0,0,0,5.14,2.64q4.17,0,6-4.22l1.05.76a8.43,8.43,0,0,1-8.25,5.33,9.65,9.65,0,0,1-7.59-3.07,11.59,11.59,0,0,1-2.73-7.92A12,12,0,0,1,258,236.5,9,9,0,0,1,265.22,233.24Zm-4.89,8.11h8.83a11,11,0,0,0-1.06-4.47,3.56,3.56,0,0,0-3.26-2.4Q261.24,234.48,260.33,241.35Zm31.72,1.92V235h-3.6v-1.29h11.76V235h-3.6v8.31h1.44a4.77,4.77,0,0,0,2.64-.63,5.08,5.08,0,0,0,1.64-2.2l1.05-2.69c.26-.77.48-1.38.67-1.83a5.47,5.47,0,0,1,1.35-1.87,3.27,3.27,0,0,1,2.11-.62,3.08,3.08,0,0,1,2,.67,2.91,2.91,0,0,1,0,3.79,2.09,2.09,0,0,1-1.68.72,2.32,2.32,0,0,1-1.58-.53,1.77,1.77,0,0,1-.62-1.44,3.54,3.54,0,0,1,.48-1.58,1.11,1.11,0,0,0-.48.48l-.58,1.15c-.32.83-.54,1.43-.67,1.78a9.63,9.63,0,0,1-2.16,4.22,4.11,4.11,0,0,1-1.68.87v.19c.89,0,1.66.08,2.3.14a5.45,5.45,0,0,1,3,1.15,3.79,3.79,0,0,1,1.48,2.64,2.87,2.87,0,0,1,.1.63c.06.32.11.54.14.67v.43c0,.16.07.29.1.39.06.32.11.54.14.67q.11.48.15.81a2.94,2.94,0,0,0,3.21,2.45h1.25V255h-3.89q-2.92,0-3.93-1.2a8.28,8.28,0,0,1-1.3-4.08c-.25-1.51-.43-2.45-.53-2.83a2.91,2.91,0,0,0-1-1.88,4.6,4.6,0,0,0-2.45-.52h-2.79v9.21h3.6V255H288.45v-1.3h3.6v-9.21h-2.78a4.6,4.6,0,0,0-2.45.52,2.68,2.68,0,0,0-1,1.88c-.19.89-.35,1.84-.48,2.83-.25,1.41-.38,2.13-.38,2.16q-.68,3.12-4.9,3.12h-3.88v-1.3h1.24a2.91,2.91,0,0,0,3.22-2.45c0-.12.06-.27.1-.43a1.66,1.66,0,0,0,.09-.38.9.9,0,0,0,.05-.34,2.4,2.4,0,0,0,.05-.33c.06-.32.11-.6.14-.82.1-.74.16-1.17.19-1.3a4.52,4.52,0,0,1,.82-2.11,3.34,3.34,0,0,1,1.78-1.15,9.5,9.5,0,0,1,2-.48c.55-.06,1.3-.13,2.26-.19v-.19a3.42,3.42,0,0,1-1.92-1.2,7.88,7.88,0,0,1-1.15-1.68c-.19-.52-.45-1.25-.77-2.21-.13-.35-.35-.95-.67-1.78s-.53-1.12-.53-1.15a1.55,1.55,0,0,0-.53-.48,3.54,3.54,0,0,1,.48,1.58,1.8,1.8,0,0,1-.62,1.44,2.35,2.35,0,0,1-1.59.53,2.23,2.23,0,0,1-1.72-.72,2.78,2.78,0,0,1-.63-1.82,2.5,2.5,0,0,1,.72-1.92,2.84,2.84,0,0,1,2-.72,3.09,3.09,0,0,1,2.06.62,5,5,0,0,1,1.39,1.87c.07.2.31.8.72,1.83s.66,1.82,1,2.69a5.07,5.07,0,0,0,1.63,2.2,5,5,0,0,0,2.64.63Zm49-9.6V235h-3.6v18.77h3.6V255H329.55v-1.3h3.36V238.85l-9.6,13.59v1.29h3.36V255H315.15v-1.3h3.6V235h-3.6v-1.29h11.52V235h-3.36v15.22l9.6-13.58V235h-3.36v-1.29Zm11.71,20.06V235.16h-5.52L345.73,242h-1.3v-8.35H365.7V242h-1.3l-1.54-6.86h-5.52v18.57h3.6V255H349.18v-1.3ZM109.57,282.67V284H106v18.77h3.6V304H98.05v-1.3h3.36V285.36l-7.87,19.05h-1.3L84.8,285.26v17.47h3.36V304h-8.4v-1.3h3.6V284H80.24v-1.29h8.12l6.14,15.55L101,282.67Zm29.77,0V284h-3.6v18.77h3.6V304H127.82v-1.3h3.36V287.85l-9.6,13.59v1.29h3.36V304H113.42v-1.3H117V284h-3.6v-1.29h11.52V284h-3.36v15.22l9.6-13.58V284h-3.36v-1.29Zm21.51,15.84,1,.62a10.52,10.52,0,0,1-3.46,3.84,8.57,8.57,0,0,1-4.75,1.39A9.76,9.76,0,0,1,146,301.2a11.5,11.5,0,0,1-2.83-7.88,11.15,11.15,0,0,1,2.88-8,10.67,10.67,0,0,1,11.85-2.21,6.73,6.73,0,0,1,3,2.69,4,4,0,0,1,.62,2,2.59,2.59,0,0,1-.72,1.83,2.26,2.26,0,0,1-1.73.72,2.37,2.37,0,0,1-1.68-.63,2.22,2.22,0,0,1-.62-1.63,3.14,3.14,0,0,1,1.82-2.74,5.26,5.26,0,0,0-4.32-1.82,5,5,0,0,0-3.07,1,5.76,5.76,0,0,0-2,2.45,14.85,14.85,0,0,0-.91,3.07,17.61,17.61,0,0,0-.29,3.22,12.83,12.83,0,0,0,1.63,6.57,5.5,5.5,0,0,0,5.09,2.74C157.3,302.59,159.31,301.23,160.85,298.51Zm12.24,4.22V284.16h-5.52L166,291h-1.29v-8.35H186V291h-1.29l-1.54-6.86h-5.52v18.57h3.6V304H169.49v-1.3Zm26.2-20.49a8,8,0,0,1,6.44,2.64,9.81,9.81,0,0,1,2.3,6.76H194.25a5.31,5.31,0,0,0,0,.82v.86a13.59,13.59,0,0,0,1.53,6.58,5.48,5.48,0,0,0,5.14,2.64q4.17,0,6-4.22l1.05.76a8.43,8.43,0,0,1-8.25,5.33,9.65,9.65,0,0,1-7.59-3.07,11.59,11.59,0,0,1-2.73-7.92,12,12,0,0,1,2.69-7.92A9,9,0,0,1,199.29,282.24Zm-4.89,8.11h8.83a11,11,0,0,0-1.06-4.47,3.56,3.56,0,0,0-3.26-2.4Q195.31,283.48,194.4,290.35Zm16.08,26.25v-1.29h3.6V284h-3.6v-1.29h3.64l4.52-.67v5.08q1.92-4.84,7.39-4.84,4.69,0,7,3a12.09,12.09,0,0,1,2.3,7.68,13.07,13.07,0,0,1-2.64,8.07,8.38,8.38,0,0,1-7,3.45,7.19,7.19,0,0,1-7-4.22v15.12h3.84v1.29Zm8.16-24.81V296a7.19,7.19,0,0,0,1.72,4.56,5.28,5.28,0,0,0,4.13,2.11A4.4,4.4,0,0,0,228,301a8.33,8.33,0,0,0,1.88-3.69,18,18,0,0,0,.48-4.18,18.65,18.65,0,0,0-.24-3.07,12.16,12.16,0,0,0-.87-2.88,5,5,0,0,0-1.77-2.3,4.86,4.86,0,0,0-2.93-.87,5,5,0,0,0-4.27,2.55A9.2,9.2,0,0,0,218.64,291.79ZM265.23,304H250.59v-1.3h4.56V271.68h-4.56v-1.3h24.33v9.84h-1.29l-1.4-8.54H260v31.05h5.28Zm11-.39a2.89,2.89,0,0,1-.77-2.06,2.76,2.76,0,0,1,.77-2,2.8,2.8,0,0,1,2.06-.81,2.76,2.76,0,0,1,2.07.77,3.07,3.07,0,0,1-.05,4.12,2.69,2.69,0,0,1-2,.77A2.85,2.85,0,0,1,276.2,303.64ZM310.05,289a16.73,16.73,0,0,1-2.16-.14,16.06,16.06,0,0,1-2.25-.34v14.21h5V304h-14.4v-1.3h4.56V271.68h-4.56v-1.3h14.35a14.39,14.39,0,0,1,8,2q3.12,2,3.12,6.43a9,9,0,0,1-3.41,7.53A13,13,0,0,1,310.05,289Zm-.57-1.29a6,6,0,0,0,5.28-2.55,10.28,10.28,0,0,0,1.82-6.14q0-3.75-1.78-5.52c-1.18-1.22-3-1.82-5.52-1.82h-3.64v15.45A11.65,11.65,0,0,0,309.48,287.71Zm24.65-5.47a10.28,10.28,0,0,1,7.87,3.12,11,11,0,0,1,2.93,7.92,11.12,11.12,0,0,1-3,8,11.56,11.56,0,0,1-15.69.1,11.33,11.33,0,0,1-2.88-8.07,11,11,0,0,1,3-8A10.43,10.43,0,0,1,334.13,282.24Zm-.05,20.88a4.47,4.47,0,0,0,2.88-1,6.3,6.3,0,0,0,1.87-2.55,16.4,16.4,0,0,0,.91-3.12,17.8,17.8,0,0,0,.29-3.17,17.28,17.28,0,0,0-.29-3.16,14.85,14.85,0,0,0-.86-3.12,5.49,5.49,0,0,0-1.83-2.55,4.52,4.52,0,0,0-2.92-1,4.46,4.46,0,0,0-2.88,1,6.06,6.06,0,0,0-1.83,2.54,16.28,16.28,0,0,0-.91,3.12,17.68,17.68,0,0,0-.29,3.12,13.19,13.19,0,0,0,1.54,6.87A4.73,4.73,0,0,0,334.08,303.12Zm14.7-11.57a28.73,28.73,0,0,1,.43-5,26.38,26.38,0,0,1,1.39-5,11,11,0,0,1,2.84-4.23,9.2,9.2,0,0,1,4.46-2.3c.67-.16,1.39-.31,2.16-.43a12.68,12.68,0,0,1,1.49-.24c.73-.13,1.31-.23,1.73-.29a6.27,6.27,0,0,0,3-1.2,5.37,5.37,0,0,0,1.54-2.83l1.34.19a12.84,12.84,0,0,1-1.3,5.13,5.35,5.35,0,0,1-2.25,2.31,10.52,10.52,0,0,1-3.46,1,33,33,0,0,0-7.29,1.48Q351,282,351,287.71a11.21,11.21,0,0,0,.33,2.78,8.9,8.9,0,0,1,3.22-5.18,8.74,8.74,0,0,1,5.76-2.11c3.26,0,5.74.92,7.44,2.78a10.68,10.68,0,0,1,2.59,7.58,11.1,11.1,0,0,1-2.88,7.83,9.79,9.79,0,0,1-7.49,3.07q-5.52,0-8.4-3.65A14.76,14.76,0,0,1,348.78,291.55Zm14.11-6.15a4.46,4.46,0,0,0-2.83-.91,4.67,4.67,0,0,0-2.88.91,6,6,0,0,0-1.78,2.4,15.2,15.2,0,0,0-.81,3,18.38,18.38,0,0,0-.24,3,19,19,0,0,0,.24,3,16.1,16.1,0,0,0,.81,3,5.88,5.88,0,0,0,1.73,2.45,4.54,4.54,0,0,0,2.83.91,4.35,4.35,0,0,0,2.79-.91,5.36,5.36,0,0,0,1.77-2.4,14.49,14.49,0,0,0,.82-2.93,19.19,19.19,0,0,0,.24-3.07,18.65,18.65,0,0,0-.24-3.07,14.73,14.73,0,0,0-.72-2.93A5.08,5.08,0,0,0,362.89,285.4Zm12.45,18.24a2.89,2.89,0,0,1-.77-2.06,2.76,2.76,0,0,1,.77-2,2.8,2.8,0,0,1,2.06-.81,2.76,2.76,0,0,1,2.07.77,3.07,3.07,0,0,1-.05,4.12,2.69,2.69,0,0,1-2,.77A2.85,2.85,0,0,1,375.34,303.64Zm-230.23,17h-4.56v31.05h4.56V353H131.19v-1.3h4.56V336.52H119.86v15.21h4.56V353H110.5v-1.3h4.56V320.68H110.5v-1.3h13.92v1.3h-4.56v14.54h15.89V320.68h-4.56v-1.3h13.92Zm13.52,10.56a8,8,0,0,1,6.43,2.64,9.76,9.76,0,0,1,2.31,6.76H153.59a5,5,0,0,0-.05.82v.86a13.58,13.58,0,0,0,1.54,6.58,5.45,5.45,0,0,0,5.13,2.64q4.18,0,6-4.22l1.06.76a8.44,8.44,0,0,1-8.26,5.33,9.61,9.61,0,0,1-7.58-3.07,11.6,11.6,0,0,1-2.74-7.92,12.08,12.08,0,0,1,2.69-7.92A9,9,0,0,1,158.63,331.24Zm-4.9,8.11h8.84a11,11,0,0,0-1.06-4.47,3.58,3.58,0,0,0-3.26-2.4Q154.65,332.48,153.73,339.35Zm43-7.68V333h-3.6v18.77h3.6V353H185.17v-1.3h3.36v-8.64h-9.6v8.64h3.36V353H170.77v-1.3h3.6V333h-3.6v-1.29h11.52V333h-3.36v8.84h9.6V333h-3.36v-1.29Zm11.86,9.69a13.13,13.13,0,0,1,4.61.72v-5.76a3.93,3.93,0,0,0-.91-2.88,3.65,3.65,0,0,0-2.83-1,6.19,6.19,0,0,0-3.94,1.25,3.1,3.1,0,0,1,1.25.82,2.72,2.72,0,0,1,.53,1.73,2.31,2.31,0,0,1-2.4,2.4,2.09,2.09,0,0,1-1.68-.72,2.4,2.4,0,0,1-.67-1.78,4,4,0,0,1,2.54-3.6,11.13,11.13,0,0,1,5.18-1.34q7.5,0,7.49,5.56v12.58c0,1.38.51,2.06,1.54,2.06a2,2,0,0,0,1.34-.52,9.12,9.12,0,0,0,.87-1l.76.77a5.42,5.42,0,0,1-4.56,2.73,5.34,5.34,0,0,1-2.49-.57,3.9,3.9,0,0,1-1.78-2,9.71,9.71,0,0,1-6.53,2.59,6.75,6.75,0,0,1-4.56-1.58,5.6,5.6,0,0,1-1.77-4.32,5.2,5.2,0,0,1,2.3-4.71A10.49,10.49,0,0,1,208.55,341.36ZM205.34,347a4.62,4.62,0,0,0,1,3.17,3.88,3.88,0,0,0,3,1.15,4.69,4.69,0,0,0,2.06-.43,5,5,0,0,0,1.73-1.11v-6.48c-.61-.22-1.21-.41-1.82-.57a11.34,11.34,0,0,0-1.92-.15,3.86,3.86,0,0,0-3.07,1.2A4.69,4.69,0,0,0,205.34,347Zm33.41-5.14v.2a10.35,10.35,0,0,1,4.23,1.39,4.18,4.18,0,0,1,1.92,3.5,5.32,5.32,0,0,1-.91,3.12,5.24,5.24,0,0,1-2.4,1.87,17,17,0,0,1-3,.87,20.19,20.19,0,0,1-3.22.24H223.92v-1.3h3.6V333h-3.6v-1.29h11.52q8.84,0,8.83,5a4.45,4.45,0,0,1-1.63,3.55A7.41,7.41,0,0,1,238.75,341.84ZM235.2,333h-3.12v8.36h3.31c2.76,0,4.13-1.48,4.13-4.42C239.52,334.28,238.08,333,235.2,333Zm-3.12,9.65v9.12h3a5.82,5.82,0,0,0,2.4-.43c1.72-.64,2.59-2.1,2.59-4.37q0-4.32-4.66-4.32Zm42.33-10.94V333h-3.6v18.77h3.6V353H262.89v-1.3h3.36V336.85l-9.6,13.59v1.29H260V353H248.49v-1.3h3.6V333h-3.6v-1.29H260V333h-3.36v15.22l9.6-13.58V333h-3.36v-1.29Zm26.45,28.13h-1.29L297.79,353H280.85l-1.78,6.77h-1.29v-8.07h3.07A12.44,12.44,0,0,0,284,347a26,26,0,0,0,1-6.29c0-.64.08-1.44.15-2.4s0-1.87.05-2.35l.09-2.5-4.17-.48v-1.29h20.11V333h-3.6v18.77h3.21ZM293.09,333h-6.34c0,.2-.06.5-.09.92v.91l-.29,5.33c-.26,5.24-1.44,9.12-3.55,11.61h10.27Zm22-1.72a8,8,0,0,1,6.43,2.64,9.76,9.76,0,0,1,2.3,6.76H310.06a5,5,0,0,0-.05.82v.86a13.47,13.47,0,0,0,1.54,6.58,5.45,5.45,0,0,0,5.13,2.64q4.19,0,6-4.22l1.06.76a8.45,8.45,0,0,1-8.26,5.33,9.61,9.61,0,0,1-7.58-3.07,11.55,11.55,0,0,1-2.74-7.92,12.08,12.08,0,0,1,2.69-7.92A9,9,0,0,1,315.1,331.24Zm-4.9,8.11H319a11,11,0,0,0-1-4.47,3.58,3.58,0,0,0-3.27-2.4Q311.11,332.48,310.2,339.35Zm19.22,14.06a3.82,3.82,0,0,1-2.49-.77,2.77,2.77,0,0,1-.92-2.25,2.8,2.8,0,0,1,.68-1.92,2.36,2.36,0,0,1,1.87-.82,2.15,2.15,0,0,1,2.21,2.21,2,2,0,0,1-1.3,2,.57.57,0,0,0,.38.09q2.11,0,3.36-2.83c.13-.41.28-1,.44-1.68q.48-3.41.76-8.88v-1.25c0-.54.07-.94.1-1.2s.05-.72.05-1.29.05-1.06.05-1.35l-4.23-.48v-1.29h20.07V333h-3.6v18.77h3.6V353H338.93v-1.3h3.36V333h-6.15c0,.61-.08,1.49-.14,2.64q0,1-.15,2.4c0,.29,0,.69,0,1.2a10.62,10.62,0,0,1-.05,1.16c-.1,1.47-.19,2.78-.29,3.93-.1,1-.19,1.84-.29,2.55a14.87,14.87,0,0,1-.57,2.35,7.43,7.43,0,0,1-1,2.21,5,5,0,0,1-4.18,2ZM114.44,382v8.12h2a4.21,4.21,0,0,0,2.5-.63,5.14,5.14,0,0,0,1.53-2.21c.16-.35.35-.81.58-1.39s.41-1,.48-1.2c.25-.7.46-1.25.62-1.63a6.67,6.67,0,0,1,.72-1.25,2.75,2.75,0,0,1,1.15-1,3.72,3.72,0,0,1,1.64-.33,3,3,0,0,1,2,.67,2.93,2.93,0,0,1,0,3.79,2.12,2.12,0,0,1-1.68.72,2.31,2.31,0,0,1-1.58-.53,1.77,1.77,0,0,1-.63-1.44,3.54,3.54,0,0,1,.48-1.58,1.23,1.23,0,0,0-.48.48l-.57,1.15-1.59,3.94a7,7,0,0,1-1,1.73,4,4,0,0,1-1.53,1v.19c3.93,0,6.08,1.33,6.43,4a5.15,5.15,0,0,1,.1.63c.06.32.11.54.14.67v.48a2.12,2.12,0,0,0,.1.43l.14.72.14.86a3,3,0,0,0,3.22,2.45h1.25V402h-3.89c-2,0-3.26-.4-3.94-1.2a8.63,8.63,0,0,1-1.29-4.18c-.23-1.31-.4-2.29-.53-2.93a3.37,3.37,0,0,0-.86-1.87,4,4,0,0,0-2.36-.53h-3.36v9.41H118V402H106.28v-1.3h3.6V382h-3.6v-1.29H118V382Zm26.4,8.4a13.17,13.17,0,0,1,4.61.72v-5.76a3.93,3.93,0,0,0-.91-2.88,3.65,3.65,0,0,0-2.83-1,6.19,6.19,0,0,0-3.94,1.25,3.1,3.1,0,0,1,1.25.82,2.72,2.72,0,0,1,.53,1.73,2.33,2.33,0,0,1-2.4,2.4,2.09,2.09,0,0,1-1.68-.72,2.4,2.4,0,0,1-.68-1.78,4,4,0,0,1,2.55-3.6,11.1,11.1,0,0,1,5.18-1.34q7.48,0,7.49,5.56v12.58c0,1.38.51,2.06,1.54,2.06a2,2,0,0,0,1.34-.52,8.08,8.08,0,0,0,.86-1l.77.77a5.45,5.45,0,0,1-4.56,2.73,5.31,5.31,0,0,1-2.49-.57,3.9,3.9,0,0,1-1.78-2,9.71,9.71,0,0,1-6.53,2.59,6.75,6.75,0,0,1-4.56-1.58,5.6,5.6,0,0,1-1.77-4.32,5.18,5.18,0,0,1,2.3-4.71A10.49,10.49,0,0,1,140.84,390.36ZM137.63,396a4.67,4.67,0,0,0,1,3.17,3.91,3.91,0,0,0,3,1.15,4.72,4.72,0,0,0,2.06-.43,5,5,0,0,0,1.73-1.11v-6.48c-.61-.22-1.22-.41-1.82-.57a11.34,11.34,0,0,0-1.92-.15,3.89,3.89,0,0,0-3.08,1.2A4.74,4.74,0,0,0,137.63,396Zm21.94,6.43a3.82,3.82,0,0,1-2.49-.77,2.77,2.77,0,0,1-.92-2.25,2.8,2.8,0,0,1,.68-1.92,2.36,2.36,0,0,1,1.87-.82,2.15,2.15,0,0,1,2.21,2.21,2,2,0,0,1-1.3,2,.57.57,0,0,0,.38.09q2.12,0,3.36-2.83c.13-.41.28-1,.44-1.68q.48-3.41.76-8.88v-1.25c0-.54.07-.94.1-1.2s.05-.72.05-1.29,0-1.06,0-1.35l-4.23-.48v-1.29H180.6V382H177v18.77h3.6V402H169.08v-1.3h3.36V382h-6.15c0,.61-.08,1.49-.14,2.64q0,1-.15,2.4c0,.29,0,.69,0,1.2a10.62,10.62,0,0,1-.05,1.16c-.1,1.47-.19,2.78-.29,3.93-.1,1-.19,1.84-.29,2.55a14.87,14.87,0,0,1-.57,2.35,7.43,7.43,0,0,1-1,2.21,5,5,0,0,1-4.18,2Zm32.88-12.05a13.17,13.17,0,0,1,4.61.72v-5.76a3.93,3.93,0,0,0-.91-2.88,3.65,3.65,0,0,0-2.83-1,6.19,6.19,0,0,0-3.94,1.25,3.1,3.1,0,0,1,1.25.82,2.72,2.72,0,0,1,.53,1.73,2.33,2.33,0,0,1-2.4,2.4,2.09,2.09,0,0,1-1.68-.72,2.4,2.4,0,0,1-.68-1.78,4,4,0,0,1,2.55-3.6,11.1,11.1,0,0,1,5.18-1.34q7.49,0,7.49,5.56v12.58c0,1.38.51,2.06,1.54,2.06a2,2,0,0,0,1.34-.52,8.08,8.08,0,0,0,.86-1l.77.77a5.45,5.45,0,0,1-4.56,2.73,5.31,5.31,0,0,1-2.49-.57,3.9,3.9,0,0,1-1.78-2,9.71,9.71,0,0,1-6.53,2.59,6.75,6.75,0,0,1-4.56-1.58,5.6,5.6,0,0,1-1.77-4.32,5.18,5.18,0,0,1,2.3-4.71A10.49,10.49,0,0,1,192.45,390.36ZM189.24,396a4.67,4.67,0,0,0,1,3.17,3.91,3.91,0,0,0,3,1.15,4.72,4.72,0,0,0,2.06-.43,5,5,0,0,0,1.73-1.11v-6.48c-.61-.22-1.22-.41-1.82-.57a11.34,11.34,0,0,0-1.92-.15,3.89,3.89,0,0,0-3.08,1.2A4.74,4.74,0,0,0,189.24,396Zm48.63-15.31V382h-3.6v18.77h3.6V402H226.35v-1.3h3.36V383.36l-7.87,19.05h-1.3l-7.44-19.15v17.47h3.36V402h-8.4v-1.3h3.6V382h-3.12v-1.29h8.11l6.15,15.55,6.48-15.55Zm3.85,8.88a28.73,28.73,0,0,1,.43-5,26.38,26.38,0,0,1,1.39-5,11.1,11.1,0,0,1,2.83-4.23,9.23,9.23,0,0,1,4.47-2.3c.67-.16,1.39-.31,2.16-.43a12.3,12.3,0,0,1,1.49-.24l1.72-.29a6.27,6.27,0,0,0,3-1.2,5.36,5.36,0,0,0,1.53-2.83l1.35.19a12.84,12.84,0,0,1-1.3,5.13,5.4,5.4,0,0,1-2.25,2.31,10.52,10.52,0,0,1-3.46,1,33.24,33.24,0,0,0-7.3,1.48Q244,380,244,385.71a11.2,11.2,0,0,0,.34,2.78,8.9,8.9,0,0,1,3.22-5.18,8.74,8.74,0,0,1,5.76-2.11c3.26,0,5.74.92,7.44,2.78a10.72,10.72,0,0,1,2.59,7.58,11.1,11.1,0,0,1-2.88,7.83,9.79,9.79,0,0,1-7.49,3.07q-5.52,0-8.4-3.65A14.76,14.76,0,0,1,241.72,389.55Zm14.11-6.15a4.46,4.46,0,0,0-2.83-.91,4.67,4.67,0,0,0-2.88.91,6,6,0,0,0-1.78,2.4,15.2,15.2,0,0,0-.81,3,18.38,18.38,0,0,0-.24,3,19,19,0,0,0,.24,3,16.1,16.1,0,0,0,.81,3,5.88,5.88,0,0,0,1.73,2.45,4.52,4.52,0,0,0,2.83.91,4.35,4.35,0,0,0,2.79-.91,5.36,5.36,0,0,0,1.77-2.4,14.49,14.49,0,0,0,.82-2.93,19.19,19.19,0,0,0,.24-3.07,18.65,18.65,0,0,0-.24-3.07,14.73,14.73,0,0,0-.72-2.93A5.08,5.08,0,0,0,255.83,383.4Zm14.85,31.68a3.93,3.93,0,0,1-2.74-1,3.17,3.17,0,0,1-1.05-2.54,2.84,2.84,0,0,1,.76-2.11,2.27,2.27,0,0,1,1.83-.87,2.44,2.44,0,0,1,1.73.63,2.14,2.14,0,0,1,.67,1.63,2.39,2.39,0,0,1-1.54,2.45,1.09,1.09,0,0,0,.87.29q2.78,0,6-8.55l.91-2.3L268.23,382h-3.6v-1.29h12.24V382h-3.74l7.24,15.65L287,382h-3.36v-1.29h8.45V382h-3.6l-9.41,22.18c-1,2.37-1.68,3.87-2,4.51-.45.93-.82,1.65-1.1,2.16a15.2,15.2,0,0,1-1.3,2,5.81,5.81,0,0,1-1.82,1.73A4.44,4.44,0,0,1,270.68,415.08Zm21.87-.48v-1.29h3.6V382h-3.6v-1.29h3.65l4.51-.67v5.08q1.92-4.84,7.4-4.84,4.69,0,7,3a12.09,12.09,0,0,1,2.3,7.68,13.07,13.07,0,0,1-2.64,8.07,8.4,8.4,0,0,1-7,3.45,7.21,7.21,0,0,1-7-4.22v15.12h3.84v1.29Zm8.16-24.81V394a7.21,7.21,0,0,0,1.73,4.56,5.28,5.28,0,0,0,4.13,2.11,4.41,4.41,0,0,0,3.55-1.68,8.21,8.21,0,0,0,1.87-3.69,18,18,0,0,0,.48-4.18,18.65,18.65,0,0,0-.24-3.07,12.13,12.13,0,0,0-.86-2.88,5,5,0,0,0-1.78-2.3,4.83,4.83,0,0,0-2.92-.87,5,5,0,0,0-4.28,2.55A9.2,9.2,0,0,0,300.71,389.79ZM350.35,382v18.77h3.36V402H342.19v-1.3h3.6V382h-3.6v-1.29h11.52V382ZM333,380.67V382h-3.6v8.26a19.43,19.43,0,0,1,4.13-.38q8.1,0,8.11,5.66a5.74,5.74,0,0,1-2.26,4.85,8.81,8.81,0,0,1-5.42,1.68H321.22v-1.3h3.6V382h-3.6v-1.29Zm-3.6,10.85v9.21h3.07c2.91,0,4.37-1.69,4.37-5.09a4.9,4.9,0,0,0-1.11-3.36,4.42,4.42,0,0,0-3.26-1.15A13.24,13.24,0,0,0,329.38,391.52Z"/><path class="cls-2" d="M231.3,64.6C198,81.85,126.72,121.83,108.6,143.66,86,171,63.3,204.85,63.3,235.91V529.6"/><path class="cls-2" d="M228.7,64.6c33.35,17.25,104.58,57.23,122.7,79.06,22.65,27.3,45.3,61.19,45.3,92.25V529.6"/></svg>