<svg id="Layer_1" data-name="Layer 1" xmlns="http://www.w3.org/2000/svg" viewBox="0 0 460 600"><defs><style>.cls-1{fill:#fff;}.cls-2{fill:none;stroke:#fff;stroke-width:6px;}</style></defs><path class="cls-1" d="M110.47,270.63l-.24,1.11a5,5,0,0,1-2.06,3.31,8.17,8.17,0,0,1-4.13.86h-3.26v-1.29h.91A4.07,4.07,0,0,0,104,274a3.39,3.39,0,0,0,1.2-2c.19-.83.34-1.42.43-1.77a5.78,5.78,0,0,0,.2-.87c.09-.38.16-.65.19-.81a9,9,0,0,0,.19-1c.1-.45.16-.75.19-.91s.1-.53.19-1,.23-.91.29-1.2q1.06-5,7.87-5.19v-.19a14.06,14.06,0,0,1-3.31-.91,8.38,8.38,0,0,1-4-2.78,7.46,7.46,0,0,1-1.49-4.61,8.13,8.13,0,0,1,.91-3.89,7.11,7.11,0,0,1,2.55-2.69,12.61,12.61,0,0,1,3.5-1.49,15.81,15.81,0,0,1,3.94-.48h14.3v1.3H126.6v31.06h4.56v1.29H117v-1.29h4.8V259.88h-3.74a8.93,8.93,0,0,0-4.37.77c-.8.51-1.42,1.69-1.87,3.55s-.63,2.85-.63,2.88a19.93,19.93,0,0,1-.43,2.06A12,12,0,0,0,110.47,270.63Zm7.59-12.05h3.74v-15h-3.45a7.38,7.38,0,0,0-5.38,2,7.14,7.14,0,0,0-2,5.28,8.38,8.38,0,0,0,1.83,5.61A6.54,6.54,0,0,0,118.06,258.58ZM149.37,289a3.93,3.93,0,0,1-2.74-1,3.2,3.2,0,0,1-1-2.55,2.86,2.86,0,0,1,.76-2.11,2.29,2.29,0,0,1,1.83-.86,2.48,2.48,0,0,1,1.73.62,2.15,2.15,0,0,1,.67,1.63,2.38,2.38,0,0,1-1.54,2.45,1.09,1.09,0,0,0,.87.29q2.78,0,6-8.54l.91-2.31-9.89-20.78h-3.6v-1.3h12.24v1.3h-3.74l7.24,15.65,6.63-15.65h-3.36v-1.3h8.45v1.3h-3.6L157.77,278c-1,2.37-1.68,3.88-2,4.52-.45.92-.82,1.64-1.1,2.16a15.2,15.2,0,0,1-1.3,2,5.7,5.7,0,0,1-1.82,1.73A4.34,4.34,0,0,1,149.37,289Zm37.52-24.82v-8.3h-3.6v-1.3h11.76v1.3h-3.6v8.3h1.44a4.86,4.86,0,0,0,2.64-.62,5.18,5.18,0,0,0,1.64-2.21c.09-.22.44-1.12,1.05-2.69.26-.77.48-1.37.67-1.82a5.28,5.28,0,0,1,1.35-1.87,3.22,3.22,0,0,1,2.11-.63,3.13,3.13,0,0,1,2,.67,2.67,2.67,0,0,1,.72,2,2.69,2.69,0,0,1-.68,1.83,2.09,2.09,0,0,1-1.68.72,2.38,2.38,0,0,1-1.58-.53,1.77,1.77,0,0,1-.62-1.44,3.54,3.54,0,0,1,.48-1.59,1.11,1.11,0,0,0-.48.48l-.58,1.16c-.32.83-.54,1.42-.67,1.77a9.68,9.68,0,0,1-2.16,4.23,4.21,4.21,0,0,1-1.68.86v.19c.89,0,1.66.08,2.3.15a5.37,5.37,0,0,1,3,1.15,3.75,3.75,0,0,1,1.48,2.64,2.63,2.63,0,0,1,.1.62c.06.32.11.55.14.67v.44c0,.16.07.28.1.38.06.32.11.54.14.67.07.32.12.59.15.82a3,3,0,0,0,3.21,2.45h1.25v1.29h-3.89q-2.92,0-3.93-1.2a8.28,8.28,0,0,1-1.3-4.08c-.25-1.5-.43-2.45-.53-2.83a2.88,2.88,0,0,0-1-1.87,4.59,4.59,0,0,0-2.45-.53h-2.79v9.22h3.6v1.29H183.29v-1.29h3.6V265.4h-2.78a4.59,4.59,0,0,0-2.45.53,2.65,2.65,0,0,0-1,1.87c-.19.9-.35,1.84-.48,2.83-.25,1.41-.38,2.13-.38,2.16q-.67,3.12-4.9,3.12H171v-1.29h1.24a2.91,2.91,0,0,0,3.22-2.45c0-.13.06-.27.1-.43a1.71,1.71,0,0,0,.09-.39.8.8,0,0,0,.05-.33,2.47,2.47,0,0,0,0-.34c.06-.32.11-.59.14-.82.1-.73.16-1.16.19-1.29a4.44,4.44,0,0,1,.82-2.11,3.36,3.36,0,0,1,1.78-1.16,11,11,0,0,1,2-.48c.55-.06,1.3-.12,2.26-.19v-.19a3.42,3.42,0,0,1-1.92-1.2,7.88,7.88,0,0,1-1.15-1.68c-.19-.51-.45-1.25-.77-2.21-.13-.35-.35-.94-.67-1.77s-.53-1.12-.53-1.16a1.55,1.55,0,0,0-.53-.48,3.54,3.54,0,0,1,.48,1.59,1.8,1.8,0,0,1-.62,1.44,2.4,2.4,0,0,1-1.59.53,2.23,2.23,0,0,1-1.72-.72,2.81,2.81,0,0,1-.63-1.83A2.5,2.5,0,0,1,174,255a2.84,2.84,0,0,1,2-.72,3,3,0,0,1,2.06.63,4.87,4.87,0,0,1,1.39,1.87c.07.19.31.8.72,1.82s.66,1.83,1,2.69a5.16,5.16,0,0,0,1.63,2.21,5.06,5.06,0,0,0,2.64.62Zm32.1-10a8,8,0,0,1,6.43,2.64,9.83,9.83,0,0,1,2.3,6.77H214a4,4,0,0,0,0,.81v.87a13.57,13.57,0,0,0,1.53,6.57,5.48,5.48,0,0,0,5.14,2.64c2.78,0,4.78-1.4,6-4.22l1.06.77a8.47,8.47,0,0,1-8.26,5.33,9.62,9.62,0,0,1-7.58-3.08,11.55,11.55,0,0,1-2.74-7.92,12.08,12.08,0,0,1,2.69-7.92A9,9,0,0,1,219,254.12Zm-4.9,8.11h8.83a11.1,11.1,0,0,0-1-4.46,3.58,3.58,0,0,0-3.27-2.4Q215,255.37,214.09,262.23Zm50.71,20.45h-1.3l-1.77-6.77h-17L243,282.68h-1.3v-8.06h3.07a12.24,12.24,0,0,0,3.12-4.76,25.5,25.5,0,0,0,1.06-6.28c0-.64.08-1.44.14-2.4s0-1.88.05-2.36l.1-2.49-4.18-.48v-1.3h20.11v1.3h-3.6v18.77h3.22ZM257,255.85h-6.33a7.7,7.7,0,0,0-.1.91v.91L250.3,263q-.37,7.88-3.55,11.62H257Zm22.88-1.73a10.28,10.28,0,0,1,7.87,3.12,11,11,0,0,1,2.93,7.92,11.16,11.16,0,0,1-3,8,11.54,11.54,0,0,1-15.69.09,11.3,11.3,0,0,1-2.88-8.06,11,11,0,0,1,3-8A10.43,10.43,0,0,1,279.9,254.12Zm0,20.88a4.47,4.47,0,0,0,2.88-1,6.27,6.27,0,0,0,1.87-2.54,16.83,16.83,0,0,0,.91-3.12,18,18,0,0,0,.29-3.17,17.3,17.3,0,0,0-.29-3.17,15.19,15.19,0,0,0-.86-3.12,5.46,5.46,0,0,0-1.83-2.54,4.52,4.52,0,0,0-2.92-1,4.45,4.45,0,0,0-2.88,1,6,6,0,0,0-1.83,2.55,15.87,15.87,0,0,0-.91,3.12,17.5,17.5,0,0,0-.29,3.12,13.13,13.13,0,0,0,1.54,6.86A4.73,4.73,0,0,0,279.85,275Zm44.51-20.45v1.3h-3.6v18.77h3.6v1.29H312.84v-1.29h3.36V257.24l-7.87,19.06H307l-7.44-19.16v17.48H303v1.29h-8.4v-1.29h3.6V255.85H295v-1.3h8.11l6.15,15.55,6.48-15.55Zm11.86,9.7a13.17,13.17,0,0,1,4.61.72v-5.76a3.93,3.93,0,0,0-.91-2.88,3.65,3.65,0,0,0-2.83-1,6.13,6.13,0,0,0-3.94,1.25,3.07,3.07,0,0,1,1.25.81,2.74,2.74,0,0,1,.53,1.73,2.35,2.35,0,0,1-.68,1.73,2.31,2.31,0,0,1-1.72.67,2.09,2.09,0,0,1-1.68-.72,2.4,2.4,0,0,1-.68-1.78,4,4,0,0,1,2.55-3.6,11.23,11.23,0,0,1,5.18-1.34q7.49,0,7.49,5.57v12.57c0,1.38.51,2.07,1.54,2.07a2.05,2.05,0,0,0,1.34-.53,8.08,8.08,0,0,0,.86-1l.77.77a5.46,5.46,0,0,1-4.56,2.74,5.32,5.32,0,0,1-2.49-.58,3.86,3.86,0,0,1-1.78-2,9.71,9.71,0,0,1-6.53,2.59,6.7,6.7,0,0,1-4.56-1.58,5.6,5.6,0,0,1-1.77-4.32,5.18,5.18,0,0,1,2.3-4.7A10.4,10.4,0,0,1,336.22,264.25ZM333,269.86a4.65,4.65,0,0,0,1,3.17,3.91,3.91,0,0,0,3,1.15,4.72,4.72,0,0,0,2.06-.43,5,5,0,0,0,1.73-1.1v-6.48c-.61-.23-1.22-.42-1.82-.58a12.54,12.54,0,0,0-1.92-.14,3.89,3.89,0,0,0-3.08,1.2A4.73,4.73,0,0,0,333,269.86Zm21.89,12.92-.67-.77c2.27-1.6,3.41-3.43,3.41-5.47v-.87a3.63,3.63,0,0,0-.24-.81,2.15,2.15,0,0,1-2.31,1.44,2.81,2.81,0,0,1-2-.72,2.76,2.76,0,0,1-.77-2,2.59,2.59,0,0,1,.91-2.11,3.42,3.42,0,0,1,2.31-.82,3.15,3.15,0,0,1,2.73,1.35,5.35,5.35,0,0,1,1,3.21Q359.22,279.79,354.9,282.78Zm-210,30.47a13.17,13.17,0,0,1,4.61.72v-5.76a3.94,3.94,0,0,0-.92-2.88,3.64,3.64,0,0,0-2.83-1,6.09,6.09,0,0,0-3.93,1.25,3,3,0,0,1,1.24.81,2.68,2.68,0,0,1,.53,1.73,2.3,2.3,0,0,1-2.4,2.4,2.12,2.12,0,0,1-1.68-.72,2.4,2.4,0,0,1-.67-1.78,4,4,0,0,1,2.54-3.6,11.26,11.26,0,0,1,5.19-1.34q7.49,0,7.49,5.57v12.57q0,2.07,1.53,2.07a2.08,2.08,0,0,0,1.35-.53,9,9,0,0,0,.86-1l.77.77A5.46,5.46,0,0,1,154,325.3a5.39,5.39,0,0,1-2.5-.58,3.85,3.85,0,0,1-1.77-2,9.73,9.73,0,0,1-6.53,2.59,6.66,6.66,0,0,1-4.56-1.58,5.58,5.58,0,0,1-1.78-4.32,5.18,5.18,0,0,1,2.31-4.7A10.38,10.38,0,0,1,144.88,313.25Zm-3.22,5.61a4.66,4.66,0,0,0,1,3.17,3.88,3.88,0,0,0,3,1.15,4.76,4.76,0,0,0,2.07-.43,5.1,5.1,0,0,0,1.73-1.1v-6.48a18.42,18.42,0,0,0-1.83-.58,12.35,12.35,0,0,0-1.92-.14,3.87,3.87,0,0,0-3.07,1.2A4.73,4.73,0,0,0,141.66,318.86Zm44.48-5.13v.19a10.56,10.56,0,0,1,4.23,1.39,4.19,4.19,0,0,1,1.92,3.51,5.3,5.3,0,0,1-.92,3.12,5.2,5.2,0,0,1-2.4,1.87,17.49,17.49,0,0,1-3,.86,20.28,20.28,0,0,1-3.22.24H171.31v-1.29h3.6V304.85h-3.6v-1.3h11.52q8.83,0,8.83,5A4.47,4.47,0,0,1,190,312.1,7.49,7.49,0,0,1,186.14,313.73Zm-3.55-8.88h-3.12v8.35h3.31q4.13,0,4.13-4.42Q186.91,304.85,182.59,304.85Zm-3.12,9.65v9.12h3a5.81,5.81,0,0,0,2.4-.44q2.6-1,2.6-4.36c0-2.88-1.56-4.32-4.66-4.32ZM225,304.85v18.77h3.36v1.29H216.85v-1.29h3.6V304.85h-3.6v-1.3h11.52v1.3Zm-17.37-1.3v1.3H204v8.25a20.11,20.11,0,0,1,4.13-.38q8.1,0,8.11,5.66a5.74,5.74,0,0,1-2.26,4.85,8.81,8.81,0,0,1-5.42,1.68H195.88v-1.29h3.6V304.85h-3.6v-1.3ZM204,314.4v9.22h3.07q4.37,0,4.37-5.09a4.86,4.86,0,0,0-1.11-3.36,4.38,4.38,0,0,0-3.26-1.15A13.2,13.2,0,0,0,204,314.4Zm49.16-11.28a8,8,0,0,1,6.44,2.64,9.83,9.83,0,0,1,2.3,6.77H248.16a5.16,5.16,0,0,0,0,.81v.87a13.57,13.57,0,0,0,1.53,6.57,5.48,5.48,0,0,0,5.14,2.64c2.78,0,4.78-1.4,6-4.22l1,.77a8.45,8.45,0,0,1-8.25,5.33,9.65,9.65,0,0,1-7.59-3.08,11.59,11.59,0,0,1-2.73-7.92,12,12,0,0,1,2.69-7.92A9,9,0,0,1,253.2,303.12Zm-4.89,8.11h8.83a10.92,10.92,0,0,0-1.06-4.46,3.56,3.56,0,0,0-3.26-2.4Q249.22,304.37,248.31,311.23Zm54.81,20.69h-1.29l-1.78-7h-34.7v-1.29H269V304.85h-3.6v-1.3h11.52v1.3h-3.36v18.77h8.4V304.85h-3.36v-1.3h11.28v1.3h-3.36v18.77h8.4V304.85h-3.36v-1.3H303v1.3h-3.6v18.77h3.69Zm13.79-28.8a8,8,0,0,1,6.43,2.64,9.78,9.78,0,0,1,2.3,6.77H311.87a4.85,4.85,0,0,0-.05.81v.87a13.46,13.46,0,0,0,1.54,6.57,5.45,5.45,0,0,0,5.13,2.64c2.79,0,4.79-1.4,6-4.22l1.06.77a8.46,8.46,0,0,1-8.26,5.33,9.62,9.62,0,0,1-7.58-3.08A11.55,11.55,0,0,1,307,314.3a12.08,12.08,0,0,1,2.69-7.92A9,9,0,0,1,316.91,303.12Zm-4.9,8.11h8.83a10.94,10.94,0,0,0-1-4.46,3.58,3.58,0,0,0-3.27-2.4Q312.92,304.37,312,311.23Zm-150.6,51.5v.19a10.5,10.5,0,0,1,4.23,1.39,4.19,4.19,0,0,1,1.92,3.51,5.36,5.36,0,0,1-.91,3.12,5.3,5.3,0,0,1-2.4,1.87,17.87,17.87,0,0,1-3,.86,20.19,20.19,0,0,1-3.22.24H146.58v-1.29h3.6V353.85h-3.6v-1.3H158.1q8.84,0,8.83,5a4.47,4.47,0,0,1-1.63,3.56A7.49,7.49,0,0,1,161.41,362.73Zm-3.55-8.88h-3.12v8.35h3.31c2.76,0,4.13-1.47,4.13-4.42Q162.18,353.85,157.86,353.85Zm-3.12,9.65v9.12h3a5.81,5.81,0,0,0,2.4-.44c1.72-.64,2.59-2.09,2.59-4.36q0-4.32-4.66-4.32Zm27.47-9.65v-1.3h18v8.21H199l-1.83-6.91h-6.77v18.77h3.84v1.29h-12v-1.29h3.6V353.85Zm32.65-1.73a10.28,10.28,0,0,1,7.87,3.12,11,11,0,0,1,2.93,7.92,11.16,11.16,0,0,1-3,8,11.54,11.54,0,0,1-15.69.09,11.3,11.3,0,0,1-2.88-8.06,11,11,0,0,1,3-8A10.43,10.43,0,0,1,214.86,352.12ZM214.81,373a4.47,4.47,0,0,0,2.88-1,6.18,6.18,0,0,0,1.87-2.54,16.83,16.83,0,0,0,.91-3.12,17.07,17.07,0,0,0,.29-3.17,16.47,16.47,0,0,0-.29-3.17,14.58,14.58,0,0,0-.86-3.12,5.44,5.44,0,0,0-1.82-2.54,4.55,4.55,0,0,0-2.93-1,4.45,4.45,0,0,0-2.88,1,6,6,0,0,0-1.83,2.55,15.87,15.87,0,0,0-.91,3.12,17.5,17.5,0,0,0-.29,3.12,13.23,13.23,0,0,0,1.54,6.86A4.73,4.73,0,0,0,214.81,373Zm32.36-4.61,1,.63a10.5,10.5,0,0,1-3.45,3.84,8.67,8.67,0,0,1-4.75,1.39,9.78,9.78,0,0,1-7.59-3.17,11.47,11.47,0,0,1-2.83-7.87,11.18,11.18,0,0,1,2.88-8A10.68,10.68,0,0,1,244.25,353a6.71,6.71,0,0,1,3,2.69,3.93,3.93,0,0,1,.62,2,2.57,2.57,0,0,1-.72,1.82,2.23,2.23,0,0,1-1.72.72,2.37,2.37,0,0,1-1.68-.62,2.21,2.21,0,0,1-.63-1.64,3.11,3.11,0,0,1,1.83-2.73,5.26,5.26,0,0,0-4.32-1.83,5,5,0,0,0-3.08,1,5.73,5.73,0,0,0-2,2.45,15.06,15.06,0,0,0-.92,3.07,17.7,17.7,0,0,0-.28,3.22,12.77,12.77,0,0,0,1.63,6.58,5.51,5.51,0,0,0,5.09,2.73C243.62,372.47,245.64,371.11,247.17,368.39Zm12.24,4.23V354h-5.52l-1.53,6.86h-1.3v-8.35h21.27v8.35H271L269.49,354H264v18.58h3.6v1.29H255.81v-1.29Zm38.13-20.07v1.3h-3.6v18.77h3.6v1.29H285.78v-1.29h3.6v-8.4h-2.93a3.1,3.1,0,0,0-2.35.76,4.71,4.71,0,0,0-1.06,2.4l-.72,3.8q-.52,2.73-4,2.73h-4.47v-1.29h1.49a2.88,2.88,0,0,0,1.78-.48,2.39,2.39,0,0,0,.77-1.35l.62-3.07a5.26,5.26,0,0,1,1.68-3.12,7.33,7.33,0,0,1,3.55-1.1v-.2A9.89,9.89,0,0,1,279.3,362a3.94,3.94,0,0,1-1.87-3.55,4.76,4.76,0,0,1,2.44-4.47,11.58,11.58,0,0,1,5.76-1.39Zm-8.16,1.3h-2.45a4.48,4.48,0,0,0-3.7,1.34,4.71,4.71,0,0,0-1.05,3.22q0,4.51,4.65,4.51h2.55Zm25.29,20.06v-1.29h3.55l-5.33-7.25-5.81,7.25h3.22v1.29h-8.5v-1.29h3.6l6.67-8.36-7.58-10.41h-3.6v-1.3h12.05v1.3h-3.36l5.28,7.25,5.76-7.25H317v-1.3h8.88v1.3h-3.6l-6.63,8.35,7.64,10.42h3.5v1.29Z"/><path class="cls-2" d="M62.5,529.38V201.05c.32-7,5.71-22.47,24.74-28.56,23.8-7.61,47.59-21.89,53.3-27.6s28.55-36.16,89.46-36.16"/><path class="cls-2" d="M397.5,529.38V201.05c-.32-7-5.71-22.47-24.74-28.56-23.8-7.61-47.59-21.89-53.3-27.6S290.91,108.73,230,108.73"/></svg>