<svg id="Layer_1" data-name="Layer 1" xmlns="http://www.w3.org/2000/svg" viewBox="0 0 460 600"><defs><style>.cls-1{fill:#fff;}.cls-2{fill:none;stroke:#fff;stroke-width:6px;}</style></defs><path class="cls-1" d="M100.36,285.07v-1.34h10.81v1.34l-4.39.5-12,28.89a12.47,12.47,0,0,1-2.29,3.74,4.49,4.49,0,0,1-3.39,1.29,5,5,0,0,1-3.14-1,3.41,3.41,0,0,1-1.39-3,3.2,3.2,0,0,1,.89-2.34,3,3,0,0,1,2.29-.95,2.56,2.56,0,0,1,2.69,2.69,3,3,0,0,1-.69,1.94,2.55,2.55,0,0,1-1.7.95,1.44,1.44,0,0,0,1,.25,3.17,3.17,0,0,0,2.49-1,10.5,10.5,0,0,0,1.74-2.84l1.4-3.18L82.92,285.07H78.19v-1.34H93.08v1.34H88.35l8.57,20.43,8.22-19.93ZM149,296.48v1.35h-3.73V317.3H149v1.35h-39.1V317.3h3.74V297.83h-3.74v-1.35h12v1.35h-3.49V317.3h8.72V297.83h-3.49v-1.35h11.7v1.35h-3.48V317.3h8.71V297.83h-3.48v-1.35Zm14.31-.45a8.34,8.34,0,0,1,6.68,2.74,10.22,10.22,0,0,1,2.39,7h-14.3a5.11,5.11,0,0,0-.05.84v.9a14.14,14.14,0,0,0,1.59,6.82A5.67,5.67,0,0,0,165,317.1q4.33,0,6.23-4.38l1.1.8a8.79,8.79,0,0,1-8.57,5.53,10,10,0,0,1-7.87-3.19,12,12,0,0,1-2.84-8.22,12.51,12.51,0,0,1,2.79-8.22A9.32,9.32,0,0,1,163.32,296Zm-5.08,8.42h9.17a11.47,11.47,0,0,0-1.1-4.63q-1.2-2.49-3.39-2.49Q159.19,297.33,158.24,304.45Zm19.95,14.6a4,4,0,0,1-2.59-.8,3.27,3.27,0,0,1-.25-4.33,2.43,2.43,0,0,1,1.94-.85,2.22,2.22,0,0,1,2.29,2.29,2,2,0,0,1-1.34,2,.54.54,0,0,0,.39.1q2.2,0,3.49-2.94.19-.65.45-1.74.5-3.54.8-9.22v-1.29c0-.57.06-1,.1-1.25s.05-.74.05-1.34,0-1.1,0-1.4l-4.39-.49v-1.35H200v1.35h-3.73V317.3H200v1.35H188.05V317.3h3.49V297.83h-6.38c0,.63-.08,1.54-.15,2.74q0,1-.15,2.49c0,.3,0,.71-.05,1.24a11.49,11.49,0,0,1-.05,1.2q-.15,2.29-.3,4.08-.15,1.55-.3,2.64a16,16,0,0,1-.59,2.44,7.38,7.38,0,0,1-1,2.29,5.2,5.2,0,0,1-1.74,1.5A5.33,5.33,0,0,1,178.19,319.05Zm64.18-22.57v1.35h-3.74V317.3h3.74v1.35h-12V317.3h3.49v-9h-10v9h3.48v1.35H215.47V317.3h3.73V297.83h-3.73v-1.35h11.95v1.35h-3.48V307h10v-9.16h-3.49v-1.35Zm12.31,10.06a13.59,13.59,0,0,1,4.78.75v-6a4.11,4.11,0,0,0-.95-3,3.78,3.78,0,0,0-2.94-1,6.4,6.4,0,0,0-4.08,1.29,3.31,3.31,0,0,1,1.29.85,2.79,2.79,0,0,1,.55,1.79,2.37,2.37,0,0,1-2.49,2.49,2.17,2.17,0,0,1-1.74-.74,2.49,2.49,0,0,1-.7-1.85,4.11,4.11,0,0,1,2.64-3.73,11.6,11.6,0,0,1,5.38-1.4q7.77,0,7.77,5.78v13.05c0,1.43.53,2.14,1.6,2.14a2.14,2.14,0,0,0,1.39-.54,9.81,9.81,0,0,0,.9-1l.79.8a5.64,5.64,0,0,1-4.73,2.84,5.5,5.5,0,0,1-2.59-.6,4,4,0,0,1-1.84-2,10.12,10.12,0,0,1-6.78,2.69,6.94,6.94,0,0,1-4.73-1.65,5.79,5.79,0,0,1-1.84-4.48,5.39,5.39,0,0,1,2.39-4.88A10.86,10.86,0,0,1,254.68,306.54Zm-3.34,5.83a4.81,4.81,0,0,0,1,3.29,4,4,0,0,0,3.13,1.19,5,5,0,0,0,2.15-.44,5.5,5.5,0,0,0,1.79-1.15v-6.72a17.2,17.2,0,0,0-1.89-.6,12.25,12.25,0,0,0-2-.15,4,4,0,0,0-3.18,1.24A4.9,4.9,0,0,0,251.34,312.37ZM293.56,296a10.66,10.66,0,0,1,8.17,3.24,11.42,11.42,0,0,1,3,8.22,11.54,11.54,0,0,1-3.14,8.32,12,12,0,0,1-16.29.1,11.76,11.76,0,0,1-3-8.37,11.42,11.42,0,0,1,3.08-8.27A10.82,10.82,0,0,1,293.56,296Zm-.05,21.67a4.64,4.64,0,0,0,3-1,6.52,6.52,0,0,0,1.95-2.64,18.12,18.12,0,0,0,.94-3.24,18.3,18.3,0,0,0,.3-3.29,17.74,17.74,0,0,0-.3-3.29,15.15,15.15,0,0,0-.9-3.24,5.72,5.72,0,0,0-1.89-2.64,4.73,4.73,0,0,0-3-1,4.67,4.67,0,0,0-3,1,6.27,6.27,0,0,0-1.89,2.64,16.79,16.79,0,0,0-.94,3.24,18.09,18.09,0,0,0-.3,3.24,13.73,13.73,0,0,0,1.59,7.12A4.91,4.91,0,0,0,293.51,317.7Zm15.26-12a29.84,29.84,0,0,1,.45-5.23,27.63,27.63,0,0,1,1.44-5.18,11.64,11.64,0,0,1,2.94-4.39,9.59,9.59,0,0,1,4.63-2.39q1-.24,2.25-.45c.26-.06.78-.15,1.54-.25l1.79-.29a6.45,6.45,0,0,0,3.14-1.25,5.59,5.59,0,0,0,1.6-2.94l1.39.2a13.23,13.23,0,0,1-1.35,5.33,5.52,5.52,0,0,1-2.34,2.39,10.62,10.62,0,0,1-3.58,1.05c-3.95.53-6.48,1-7.57,1.54q-4,1.95-4,7.87a11.62,11.62,0,0,0,.35,2.89,9.3,9.3,0,0,1,3.34-5.38,9.1,9.1,0,0,1,6-2.19q5.09,0,7.72,2.89a11.05,11.05,0,0,1,2.69,7.87,11.53,11.53,0,0,1-3,8.12,10.21,10.21,0,0,1-7.77,3.19q-5.73,0-8.72-3.79A15.34,15.34,0,0,1,308.77,305.7Zm14.64-6.38a4.56,4.56,0,0,0-2.93-.95,4.79,4.79,0,0,0-3,.95,6.18,6.18,0,0,0-1.85,2.49,15.44,15.44,0,0,0-.84,3.09,18.67,18.67,0,0,0-.25,3.14,19.28,19.28,0,0,0,.25,3.14,16.72,16.72,0,0,0,.84,3.08,6.08,6.08,0,0,0,1.8,2.54,4.67,4.67,0,0,0,2.94.95,4.47,4.47,0,0,0,2.89-.95,5.58,5.58,0,0,0,1.84-2.49,15.7,15.7,0,0,0,.85-3,20.82,20.82,0,0,0,.24-3.19,20.17,20.17,0,0,0-.24-3.19,15.87,15.87,0,0,0-.75-3A5.29,5.29,0,0,0,323.41,299.32ZM345.35,296a8.31,8.31,0,0,1,6.67,2.74,10.18,10.18,0,0,1,2.39,7H340.12a5.11,5.11,0,0,0-.05.84v.9a14,14,0,0,0,1.59,6.82A5.67,5.67,0,0,0,347,317.1q4.33,0,6.23-4.38l1.09.8a8.76,8.76,0,0,1-8.56,5.53,10,10,0,0,1-7.87-3.19,12,12,0,0,1-2.84-8.22,12.51,12.51,0,0,1,2.79-8.22A9.32,9.32,0,0,1,345.35,296Zm-5.08,8.42h9.16a11.32,11.32,0,0,0-1.09-4.63q-1.2-2.49-3.39-2.49Q341.22,297.33,340.27,304.45Zm41.14,21.22h-1.34l-1.85-7H360.64l-1.84,7h-1.35V317.3h3.19a12.84,12.84,0,0,0,3.24-4.93,26.79,26.79,0,0,0,1.09-6.52l.15-2.49c0-1.13,0-1.95.05-2.45l.1-2.59-4.33-.49v-1.35h20.87v1.35h-3.74V317.3h3.34Zm-8.07-27.84h-6.57a8.41,8.41,0,0,0-.1.94v1l-.3,5.53q-.4,8.16-3.69,12.05h10.66Z"/><path class="cls-2" d="M231.3,62.16C198,79.41,126.72,119.39,108.6,141.22,86,168.52,63.3,202.41,63.3,233.47V527.16"/><path class="cls-2" d="M228.7,62.16c33.35,17.25,104.58,57.23,122.7,79.06,22.65,27.3,45.3,61.19,45.3,92.25V527.16"/></svg>