<svg id="Layer_1" data-name="Layer 1" xmlns="http://www.w3.org/2000/svg" viewBox="0 0 460 600"><defs><style>.cls-1{fill:none;stroke:#fff;stroke-width:6px;}.cls-2{fill:#fff;}</style></defs><path class="cls-1" d="M230,146.49c111.66,0,167,36.85,167,125.66v256"/><path class="cls-1" d="M230,146.49c-111.66,0-167,36.85-167,125.66v256"/><path class="cls-2" d="M127.92,311.7l-.24,1.1a5,5,0,0,1-2.06,3.32,8.17,8.17,0,0,1-4.13.86h-3.27v-1.3h.92a4.1,4.1,0,0,0,2.35-.57,3.52,3.52,0,0,0,1.2-2c.19-.83.33-1.42.43-1.77a6.37,6.37,0,0,0,.19-.87c.1-.38.16-.65.19-.81a8.58,8.58,0,0,0,.2-1c.09-.45.16-.76.19-.92s.09-.52.19-1,.22-.92.29-1.2q1-5,7.87-5.19v-.19a14.42,14.42,0,0,1-3.31-.91,8.35,8.35,0,0,1-4-2.79,7.35,7.35,0,0,1-1.49-4.6,8,8,0,0,1,.91-3.89,7.16,7.16,0,0,1,2.54-2.69,12.67,12.67,0,0,1,3.51-1.49,15.79,15.79,0,0,1,3.93-.48h14.31v1.3h-4.56v31.05h4.56V317H134.45v-1.3h4.8V301H135.5a8.77,8.77,0,0,0-4.36.77c-.8.51-1.43,1.69-1.88,3.55s-.62,2.85-.62,2.88c-.13.77-.27,1.45-.43,2.06A10.4,10.4,0,0,0,127.92,311.7Zm7.58-12.05h3.75v-15h-3.46a7.31,7.31,0,0,0-5.37,2,7.1,7.1,0,0,0-2,5.28,8.43,8.43,0,0,0,1.82,5.61A6.55,6.55,0,0,0,135.5,299.65Zm53.73-4v1.3h-3.6v18.76h3.6V317H177.71v-1.3h3.36V296.92h-9.74v18.76h3.36V317H163.17v-1.3h3.6V296.92h-3.6v-1.3Zm14.64-.43a10.3,10.3,0,0,1,7.88,3.12,12.17,12.17,0,0,1-.1,15.93,11.57,11.57,0,0,1-15.7.1,11.32,11.32,0,0,1-2.88-8.06,11,11,0,0,1,3-8A10.41,10.41,0,0,1,203.87,295.19Zm0,20.88a4.47,4.47,0,0,0,2.88-1,6.23,6.23,0,0,0,1.87-2.55,17.16,17.16,0,0,0,.91-3.12,17.78,17.78,0,0,0,.29-3.16,17.3,17.3,0,0,0-.29-3.17,14.85,14.85,0,0,0-.86-3.12,5.56,5.56,0,0,0-1.83-2.55,4.78,4.78,0,0,0-5.81.05,6,6,0,0,0-1.82,2.55,15.22,15.22,0,0,0-.91,3.12,17.5,17.5,0,0,0-.29,3.12,13.16,13.16,0,0,0,1.54,6.86A4.73,4.73,0,0,0,203.83,316.07Zm52.38-20.45v1.3h-3.6v18.76h3.6V317H218.53v-1.3h3.6V296.92h-3.6v-1.3h11.52v1.3h-3.36v18.76h8.4V296.92h-3.36v-1.3H243v1.3h-3.36v18.76h8.4V296.92h-3.36v-1.3Zm13.78-.43a8,8,0,0,1,6.44,2.64,9.83,9.83,0,0,1,2.3,6.77H265a5.16,5.16,0,0,0,0,.81v.87a13.57,13.57,0,0,0,1.53,6.57,5.48,5.48,0,0,0,5.14,2.64q4.17,0,6-4.22l1.05.77a8.44,8.44,0,0,1-8.25,5.32,9.65,9.65,0,0,1-7.59-3.07,11.59,11.59,0,0,1-2.73-7.92,12,12,0,0,1,2.69-7.92A9,9,0,0,1,270,295.19Zm-4.89,8.11h8.83a10.92,10.92,0,0,0-1.06-4.46,3.56,3.56,0,0,0-3.26-2.4C267.21,296.44,265.71,298.72,265.1,303.3Zm19.22,14.06a3.9,3.9,0,0,1-2.5-.76,3.18,3.18,0,0,1-.24-4.18,2.41,2.41,0,0,1,1.88-.82,2.14,2.14,0,0,1,2.2,2.21,2,2,0,0,1-1.29,2,.56.56,0,0,0,.38.1q2.12,0,3.36-2.84c.13-.41.27-1,.43-1.68q.48-3.41.77-8.88v-1.24c0-.55.07-.95.1-1.2s0-.72,0-1.3,0-1.06,0-1.34l-4.22-.48v-1.3h20.06v1.3h-3.6v18.76h3.6V317H293.82v-1.3h3.36V296.92H291c0,.6-.08,1.48-.14,2.64,0,.64-.08,1.44-.15,2.4,0,.28,0,.68-.05,1.2a11.12,11.12,0,0,1,0,1.15c-.1,1.47-.2,2.78-.29,3.93-.1,1-.19,1.84-.29,2.55a15,15,0,0,1-.58,2.35,7.08,7.08,0,0,1-1,2.21,5,5,0,0,1-4.18,2Zm26.4-3a2.77,2.77,0,0,1,2.93-3.22,3.19,3.19,0,0,1,2.11.72,3,3,0,0,1,.91,2.5,3.07,3.07,0,0,1-.91,2.49,3,3,0,0,1-2.11.77,3,3,0,0,1-2.07-.77A3.19,3.19,0,0,1,310.72,314.39Zm12.58,0a3.08,3.08,0,0,1,.86-2.5,3.12,3.12,0,0,1,2.06-.72,3.2,3.2,0,0,1,2.12.72,3,3,0,0,1,.91,2.5,3.1,3.1,0,0,1-.91,2.49,3,3,0,0,1-2.12.77,3,3,0,0,1-2.06-.77A3.16,3.16,0,0,1,323.3,314.39Zm12.52,0a2.78,2.78,0,0,1,2.93-3.22,3.18,3.18,0,0,1,2.11.72,3,3,0,0,1,.92,2.5,3.07,3.07,0,0,1-.92,2.49,3,3,0,0,1-2.11.77,3,3,0,0,1-2.06-.77A3.16,3.16,0,0,1,335.82,314.39Z"/></svg>