<svg id="Layer_2" data-name="Layer 2" xmlns="http://www.w3.org/2000/svg" viewBox="0 0 595.28 841.89"><defs><style>.cls-1{fill:#fff;}</style></defs><path class="cls-1" d="M120.36,176.69c-1.22.7-4.22,2.4-5,5.39-.71,2.76.82,5.37,1.39,6.37,8.61,15.15,12.71,41.88,23.72,41.84,3,0,5.14-1.94,7.42-4,8.06-7.13,6.93-18.69,6.8-19.83-.56-5-2.54-8.16-6.17-13.94,0,0-6.2-9.89-15.89-15.51a12.5,12.5,0,0,0-6.45-2A11.78,11.78,0,0,0,120.36,176.69Z"/><path class="cls-1" d="M150.7,238.72c.39-1.74,1.24-5.49,4.36-7.36,2.85-1.7,6.12-1,7.76-.56,15.25,3.67,21.82,26.22,22.87,29.82a15.16,15.16,0,0,1,.56,7.68c-1.21,5.75-6.18,10-10.91,11.39a7.53,7.53,0,0,1-4.44.32c-3.32-.93-4.9-4.56-5.82-6.54-5.86-12.63-10-12.11-13.49-23.76C150.27,245.28,149.94,242.06,150.7,238.72Z"/><path class="cls-1" d="M197,285.85c5.69,2.2,11.89,9.38,15.67,13.82,7.58,8.9,9.52,11.34,11.8,15.36a30.91,30.91,0,0,1,3.64,8.81c.79,3.53,1.71,7.59-.08,11.63s-3.86,2.63-9.86,9.62c-.88,1-1.77,2.14-3.07,2.18-2.38.08-4.28-3.41-5.17-5.09-13.76-25.88-13.67-28.44-18.11-32.16-1.94-1.64-5.07-3.76-6.62-7.92a17.42,17.42,0,0,1-.81-7.92c.27-2.68.48-4.71,2.1-6.47,2.37-2.57,6-2.58,6.71-2.58A10.37,10.37,0,0,1,197,285.85Z"/><path class="cls-1" d="M223.09,101.69c1.49-1.87,4.75-1.61,5.26-1.57a9.07,9.07,0,0,1,3.78,1.2c5.24,3,9,8.81,9.42,9.51,2.19,3.5,4.73,7.54,5.54,13.66a28.91,28.91,0,0,1-1.66,14.13c-.88,2.24-3.32,8.44-9.42,11.72-1.61.87-4.12,2.18-6.74,1.39s-4-3.15-5-5.26c-6.78-14.28-.31-31.27-1.85-40.72C222.33,105.1,222,103.1,223.09,101.69Z"/><path class="cls-1" d="M230.84,176.51c3.26-2.81,8.61-.83,11.16.12a13.68,13.68,0,0,1,6.44,4.05c4.79,5.53,5.52,15.07,5.85,19.42.82,10.8-1.76,19.08-3.82,25.79a54.72,54.72,0,0,1-5.92,13c-2.06,3.21-4.05,6.25-6.14,5.67-2.24-.62-3.48-5.07-4.12-7.63C233.25,232.77,221.14,184.87,230.84,176.51Z"/><path class="cls-1" d="M236.29,260c2.4-1.91,5.93-1.31,12-.27,3.45.59,5.17.88,7.2,1.94,1.19.62,4.48,2.53,7.39,7.57,9.58,16.62,4.67,49.37,5.26,56.68a5,5,0,0,1-.09,1.48c-.74,3.31-4.92,5-6.28,5.54-3.82,1.54-11,2.69-15.33-1.2-2.92-2.65-3-6.32-3.51-12.28-.69-8.34-1.6-19.23-4-28.34-2.42-9.3-5.81-14.71-5.27-24.28C233.84,264.52,234.22,261.68,236.29,260Z"/><path class="cls-1" d="M233.52,347.59c5.47-3,10.58.05,29.79-4.74,3-.75,2.53-.73,5.12-1.38,4.6-1.13,18.18-4.16,37.68-2.56,12.65,1,19,1.55,24.85,4.73,10.58,5.73,15.57,15,18.73,20.91A61.2,61.2,0,0,1,357,396.3c-.29,6-.6,12.57-4.34,19.53-8.45,15.76-26.9,19.77-41.22,22.88-10.16,2.21-15.34,3.25-20.12.39-9.25-5.54-4.73-17.86-14.2-24.65-7.32-5.25-12.72.18-27.81-4.93-4.67-1.58-11.41-3.87-16.56-9.07C218.57,386.13,221.15,354.43,233.52,347.59Z"/><path class="cls-1" d="M354.62,242.19c2.67-1.88,7.14,1,8.42,1.78a20.16,20.16,0,0,1,5.22,5.14c5.78,8.63,2.89,27.72,2.52,30-.71,4.48-4.43,25.95-19.53,44.45-3.78,4.64-10.38,12.56-15.48,10.47-.47-.19-2.58-1.14-4.21-5.33-8-20.57,21.24-53.68,20.7-77.25C352.23,249.87,352,244.07,354.62,242.19Z"/><path class="cls-1" d="M383.17,156.75c5,.46,8.74,16.85,8.93,28.4,0,3.06-.13,6.62-2.65,18.74-4.83,23.27-7.79,37.55-11.91,37.67-4.45.14-8.09-16.35-8.44-17.95C362.38,192.39,375.49,156.06,383.17,156.75Z"/><path class="cls-1" d="M403.28,88.06c-5.39-.15-7.67,28-17,47-.47.94-1.6,3.19-1,5.23,1.58,5.23,14,6.88,20.26,1.8C418.47,131.58,410,88.24,403.28,88.06Z"/><path class="cls-1" d="M310,78.11c1.7,9.33,8.09,12.17,11.25,24.65,1.39,5.48,3.6,14.23-1.06,21.33a16.84,16.84,0,0,1-9,6.83c-.87.27-7.59,2.28-11.18-1.18-1.14-1.1-2.13-2.93-1.72-11.75.29-6.27.94-8.43,2.33-18.79.65-4.82,2.17-9.59,2-14.45-.08-2.34-.42-5.78,1.68-8.74.26-.35,2-2.71,3.48-2.35S309.83,77.09,310,78.11Z"/><path class="cls-1" d="M299.09,146.41c-2.93,14.88-1.47,31.42-2.93,46.94-.88,9.37-2.65,16.49,1.47,21.9.58.77,2.61,3.35,5.68,3.74,5,.64,9.16-5,11-7.49,6-8.08,6.93-17.09,7.88-27.22,1-10.53,1.5-15.92-.91-22.88-2.56-7.38-6.62-11.38-12.48-17.16-2.49-2.45-4.71-4.22-6.6-3.55C300.13,141.43,299.42,144.77,299.09,146.41Z"/><path class="cls-1" d="M296.09,231.22c-6.44,5.8-1.62,16.27-4.88,45.36-1.63,14.59-2.35,20.71-2.35,20.71-.95,8.09-2,16.33.67,25.45,1.24,4.28,2.49,6,4,6.9,4.22,2.36,9.73-2.45,10.93-3.55,3.77-3.49,5.51-8,7.56-15.58a161.15,161.15,0,0,0,5.72-30.57c1.08-12.11-.5-7.76.33-27.42.22-5.12.56-10.92-2.35-16.56a14.78,14.78,0,0,0-5.21-6.12A12.72,12.72,0,0,0,296.09,231.22Z"/><path class="cls-1" d="M362.46,358.62c3.63-6.79,10.8-3.79,25.14-10.27,8.78-4,18.9-8.53,25.56-18.07,2.67-3.84,6.41-6.88,13.9-12.95a4,4,0,0,1,2.86-1.11c4,.48,6,10.3,6.13,11.16,2.74,13.85-6.88,27.24-8.79,29.9-9.73,13.53-22.81,17.68-31.07,20.3-10.65,3.38-24.37,7.74-31.28-.22C360.87,372.71,359.48,364.2,362.46,358.62Z"/><path class="cls-1" d="M442.73,298.81c2.7-12.71,26.84-19.83,28.83-27.06.12-.44.57-2.38,1.83-2.85s2.8.76,3.51,1.59c2.31,2.65,1.66,7.35,1.13,10.92-1.83,12.14-2.79,18.39-5.21,27.38s-3.65,12.18-6.6,14.08a10.21,10.21,0,0,1-6.89,1.42c-5.31-.69-8.54-5.31-10.69-8.38C446.05,312.2,441.33,305.45,442.73,298.81Z"/><path class="cls-1" d="M277.42,453.26a86.38,86.38,0,0,0,4.49,13.47c1,2.37,2,4.41,4,5.07a5.57,5.57,0,0,0,3.8-.35c4.4-1.81,4.81-6.53,9.1-13.47,2.84-4.59,4.44-7.19,7.6-8.86,6.67-3.54,14.6.08,15.65.57,8.19,3.87,11.4,12.26,12.78,16,7.66,20.86-1.56,49.22-17,66.19-3.76,4.13-7,6.62-10.59,12.78-7.25,12.52-7.05,25.08-7,29.82.15,24.79-4,49.43-5.87,74.14-3.12,40-6.58,61.8-5,68a3.48,3.48,0,0,1-.12,2.19c-1.94,4.51-16.4,5.42-21.18-.35-3.43-4.13-.79-10.35,1.27-19.34,1.9-8.31.58-7.09,2.07-38.68,1.23-26,4.07-68.17,3.8-109.83-.06-9.25-.28-18-4.95-27.75-5.77-12-12.23-12.78-17.16-25.09-4.8-12-3.29-22.82-2.53-28.21,1.08-7.69,3.06-21.83,12.55-26,3.49-1.54,8.8-2.09,11.63.46C276.23,445.37,275.93,446.52,277.42,453.26Z"/></svg>