<svg id="Layer_1" data-name="Layer 1" xmlns="http://www.w3.org/2000/svg" viewBox="0 0 807.24 366.93"><defs><style>.cls-1{fill:#1d1d1b;}</style></defs><path class="cls-1" d="M224.09,218.24c0,12.8-10.2,20.75-27.63,20.75H156.63v-1.78c9.72,0,11-1.19,11-7.59V167.73c0-6.75-.94-7.58-11-7.58v-1.78h37.11c19,0,28.57,5.45,28.57,19.2,0,12.57-12.68,19.57-28.57,20C209.51,198.08,224.09,201.76,224.09,218.24ZM180,160.15v36.39h9.13c13.88,0,19.8-5.69,19.8-17.78s-6.16-18.61-17.78-18.61Zm30.71,57.26c0-13.87-3.79-19.09-26.91-19.09H180V226c0,7.47,4.51,11.26,13.4,11.26C204.29,237.21,210.69,230,210.69,217.41Z"/><path class="cls-1" d="M236.54,211c0-18,11.38-29.64,27.38-29.64S291.31,193,291.31,211s-11.38,29.64-27.39,29.64S236.54,229,236.54,211Zm42.32,2.84c0-17.31-6.16-30.7-15.88-30.7-6.64,0-14,6.28-14,25,0,17.19,6.17,30.71,15.89,30.71C271.51,238.87,278.86,232.59,278.86,213.85Z"/><path class="cls-1" d="M348.81,217.05,347.86,239H302.57V229l39.6-36.28H312.65c-8.42,0-9.6,1.42-10.08,9h-1.18v-19h44.34v10L306.13,229h30c8.65,0,10.19-1.07,11.5-12Z"/><path class="cls-1" d="M410,230.69c0,5.33,1.42,6.52,7.94,6.52V239H392.08v-1.78c6.29,0,7.47-1.07,7.47-6.52V202.35c0-9.84-4.38-13.75-11.14-13.75-5.22,0-9,1.66-12.92,6.28v35.81c0,5.69,1.42,6.52,7.7,6.52V239H357.11v-1.78c6.64,0,7.94-1,7.94-6.52v-63c0-7.11-1.42-7.7-7.94-6.87v-1.19l17.66-4.86h.72V193.7c3-7.71,9.48-12.33,17.19-12.33,11.26,0,17.31,6.87,17.31,19.44Z"/><path class="cls-1" d="M435.36,203.66a31.73,31.73,0,0,0-.12,3.44c0,15.05,7.35,23.35,18.85,23.35,7.11,0,13.52-3.79,16.12-10.31l1,.35c-2.37,13.52-8.53,20.16-20.27,20.16-15.3,0-25.25-11.26-25.25-28.46,0-18.37,9.48-30.82,25.49-30.82,14,0,21.69,8.06,21.57,22.29Zm.12-1.78H461.8c0-11-3.56-18.85-12.1-18.85C442,183,436.66,189.9,435.48,201.88Z"/><path class="cls-1" d="M576.21,227.73c.59,7.58,2.84,9.48,11,9.48V239H551.55v-1.78c11.14,0,13-1.54,12.33-10.08l-5.1-60.35-25.49,72.45h-7.12l-26-72.09-5.34,58.69c-.95,9.36,1.54,11.26,14.35,11.26V239H481.59v-1.78c7.71,0,10.44-2.73,11.15-11.38L497.6,172c1.07-10.67.12-11.85-9.37-11.85v-1.78H510.4l24.67,69.36,24.3-69.36h22.41v1.78c-10.2,0-11.5,1.42-10.55,11.85Z"/><path class="cls-1" d="M591.38,211c0-18,11.38-29.64,27.39-29.64S646.16,193,646.16,211s-11.39,29.64-27.39,29.64S591.38,229,591.38,211Zm42.33,2.84c0-17.31-6.17-30.7-15.89-30.7-6.64,0-14,6.28-14,25,0,17.19,6.17,30.71,15.89,30.71C626.36,238.87,633.71,232.59,633.71,213.85Z"/><path class="cls-1" d="M664.06,260.33c5.57-4,8.3-8.06,13.75-21l-21.1-49.91c-1.78-4.15-2.61-4.86-5.93-4.86v-1.78h26.68v1.78c-6.05,0-8.54.71-8.54,3.67,0,1.55.71,3.56,1.78,6.41l12.56,31.18L695,196c1.19-3.08,1.9-5.33,1.9-7,0-3.56-3.08-4.39-10.67-4.39v-1.78h20.39v1.78c-3.56,0-5,.83-8.3,9.37l-18.61,46.95c-6.52,16.59-13,23.59-21.82,23.59"/><path class="cls-1" d="M671.93,255.11a20.52,20.52,0,0,1-12.81,9.47,23.65,23.65,0,0,1-8.25.51,66.55,66.55,0,0,1-7.83-1.57,104.16,104.16,0,0,1-14.81-5.37c-2.39-1.07-4.77-2.17-7.09-3.37-1.16-.61-2.31-1.22-3.46-1.85L616,252l-.86-.49-.42-.25-.22-.13-.11-.08-.11-.05a61.76,61.76,0,0,0-16.75-7,74.44,74.44,0,0,0-18.14-2.45,60.2,60.2,0,0,0-18.13,2.38,29.15,29.15,0,0,0-8.18,3.82c-2.41,1.69-4.44,4.14-4.58,7a9.27,9.27,0,0,0,3.48,7.57A9.58,9.58,0,0,0,560.2,264c2.9-.64,5.78-2,7.33-4.41a9.67,9.67,0,0,0,.63-8.31,5.2,5.2,0,0,0-2.86-2.74,19,19,0,0,0-4.27-1.27c-3-.56-6.09-.81-9.18-1.09-6.19-.52-12.42-1-18.62-1.89-3.09-.41-6.2-.93-9.26-1.47s-6.14-1.06-9.21-1.67a124.39,124.39,0,0,1-18.23-4.84,80.9,80.9,0,0,1-8.77-3.68c-1.44-.66-2.82-1.46-4.23-2.21s-2.75-1.59-4.06-2.5a76.1,76.1,0,0,1-14.31-12.46,81.11,81.11,0,0,1-6-7.38,63.55,63.55,0,0,1-5-8.05,39.39,39.39,0,0,1-5-18.17,31,31,0,0,1,5.61-17.77,46.3,46.3,0,0,1,13.59-12.68,45.28,45.28,0,0,0-13.14,13,30.18,30.18,0,0,0-4.88,17.45,37.83,37.83,0,0,0,5.39,17.31,62,62,0,0,0,5.24,7.52,84.67,84.67,0,0,0,6.24,6.74c2.17,2.16,4.5,4.16,6.83,6.13a85.21,85.21,0,0,0,7.28,5.5c1.23.88,2.56,1.62,3.84,2.43s2.64,1.51,4,2.16a76,76,0,0,0,8.38,3.64,140,140,0,0,0,17.73,5.06c3,.69,6,1.3,9.09,1.92s6.08,1.2,9.13,1.69c6.11,1,12.27,1.69,18.46,2.37,3.1.35,6.2.71,9.32,1.33a20.5,20.5,0,0,1,4.63,1.45,8.66,8.66,0,0,1,2.14,1.42,6,6,0,0,1,1.48,2.22,13.07,13.07,0,0,1,.68,4.91,9.65,9.65,0,0,1-1.54,4.75,10.38,10.38,0,0,1-3.69,3.32,17.34,17.34,0,0,1-4.57,1.63,12.87,12.87,0,0,1-4.91.09,10.4,10.4,0,0,1-4.51-2,10.73,10.73,0,0,1-4.09-8.75,9.07,9.07,0,0,1,1.67-4.73,15.6,15.6,0,0,1,3.46-3.47,30.63,30.63,0,0,1,8.57-4.25,63,63,0,0,1,18.67-2.92c12.6-.17,25.43,2.58,36.5,9.06l-.11-.05,1.76,1,1.68.91q1.7.89,3.42,1.74c2.29,1.14,4.61,2.21,6.95,3.23a111.7,111.7,0,0,0,14.37,5.11,69.4,69.4,0,0,0,7.35,1.58,20.55,20.55,0,0,0,7.17-.19c4.72-1,8.95-3.68,12.71-7.14Z"/><path class="cls-1" d="M245.91,221.41a4.27,4.27,0,0,1-1.12-1.87,2.92,2.92,0,0,1,0-1.58c.26-1,.53-2,.82-2.94.57-2,1.24-3.88,1.93-5.81a70,70,0,0,1,5.28-11.2,34.39,34.39,0,0,1,3.7-5.16A15.36,15.36,0,0,1,259,190.6a9.15,9.15,0,0,1,3.15-1.53,6.81,6.81,0,0,1,3.57.16,12.71,12.71,0,0,1,3,1.34,24.85,24.85,0,0,1,4.84,4,101.87,101.87,0,0,1,7.67,9.45c1.2,1.62,2.39,3.23,3.63,4.79a38.73,38.73,0,0,0,3.93,4.41c1.4,1.27,3.09,2.49,4.7,1.95a8.35,8.35,0,0,0,4.24-3.44,20.89,20.89,0,0,0,2.58-5.23,19.86,19.86,0,0,0,1.15-5.71l1.23,0a23,23,0,0,1-1.2,6.07,22.72,22.72,0,0,1-2.69,5.57,9.59,9.59,0,0,1-4.94,4,4.34,4.34,0,0,1-1.77.16,5.25,5.25,0,0,1-1.64-.52,11.54,11.54,0,0,1-2.62-1.85c-3-2.83-5.37-6.15-7.86-9.3a80.71,80.71,0,0,0-7.74-9.08,22.66,22.66,0,0,0-4.56-3.51c-1.63-.89-3.46-1.5-4.92-1a8.27,8.27,0,0,0-3.95,3.28,26.88,26.88,0,0,0-2.74,5,99.52,99.52,0,0,0-3.85,11.1c-.6,1.88-1.13,3.79-1.7,5.69l-.86,2.86a2.84,2.84,0,0,1-.82,1.32,4.35,4.35,0,0,1-1.91,1Z"/><path class="cls-1" d="M190.28,304A72.58,72.58,0,0,0,206,296.56a69.26,69.26,0,0,0,13.46-11,60.73,60.73,0,0,0,10-14.13A61.82,61.82,0,0,0,235,255.11a71.14,71.14,0,0,0,1.2-17.23,66.21,66.21,0,0,0-3-16.95,45.29,45.29,0,0,0-7.93-15.07,25.32,25.32,0,0,0-13.85-9c-5.46-1.23-11.21-.24-16.66,1.42s-10.8,4-16.27,6.1-11.13,4-17.17,4.51a29.28,29.28,0,0,1-9.08-.64,27,27,0,0,1-8.39-3.62,35.66,35.66,0,0,1-11.94-13.44,47,47,0,0,1-5.13-17.18,39.42,39.42,0,0,1,2.15-17.91,37.13,37.13,0,0,1,10.6-14.67,52,52,0,0,1,15.52-9,67.63,67.63,0,0,1,17.43-4,66.32,66.32,0,0,1,17.9.66,49.42,49.42,0,0,1,17,6.17,51.86,51.86,0,0,1,13.6,11.89A34.16,34.16,0,0,1,225.7,155a20.1,20.1,0,0,1,1.65,9.46,14.87,14.87,0,0,1-1.23,4.86,15.54,15.54,0,0,1-2.76,4.16,30.83,30.83,0,0,1-7.44,5.62,136.21,136.21,0,0,1-16.12,7.4Q183.52,193,167,198.73c-5.51,1.92-11,3.76-16.59,5.57s-11.09,3.56-16.53,5.45a74.77,74.77,0,0,0-7.86,3.12,16.11,16.11,0,0,0-3.21,2,4.7,4.7,0,0,0-1,1.08,2.49,2.49,0,0,0-.37,1.07,5.15,5.15,0,0,0,.66,2.88,15.11,15.11,0,0,0,2.14,3,33.42,33.42,0,0,0,6.18,5.28,54.28,54.28,0,0,0,15.23,7.17A47.61,47.61,0,0,0,154,237c1.42.17,2.82.18,4.3.27a42,42,0,0,0,4.29.2l.13,1a40.2,40.2,0,0,1-4.43.43c-1.42.09-2.93.15-4.42.11a51.08,51.08,0,0,1-8.87-1,54.79,54.79,0,0,1-16.82-6.27,33.36,33.36,0,0,1-7.33-5.7,17.52,17.52,0,0,1-2.92-4,9.77,9.77,0,0,1-1.18-5.54,7.26,7.26,0,0,1,1.07-3,9.46,9.46,0,0,1,1.92-2.16,20.07,20.07,0,0,1,4.2-2.59,81.07,81.07,0,0,1,8.38-3.29c5.57-1.9,11.12-3.61,16.66-5.39s11.05-3.58,16.54-5.45Q182,189,198.24,182.61a134.22,134.22,0,0,0,15.63-7.06,27.08,27.08,0,0,0,6.48-4.8,10.9,10.9,0,0,0,3-6.63,16.13,16.13,0,0,0-1.33-7.56,29.34,29.34,0,0,0-4.19-7,47.79,47.79,0,0,0-12.49-11,45.85,45.85,0,0,0-15.64-5.77A62.43,62.43,0,0,0,172.8,132a64,64,0,0,0-16.51,3.72,49.62,49.62,0,0,0-14.56,8.32A33.64,33.64,0,0,0,132,157.33a36.1,36.1,0,0,0-2.12,16.43,44.17,44.17,0,0,0,4.64,16.12,32.79,32.79,0,0,0,10.85,12.49,24.21,24.21,0,0,0,7.53,3.34,26.59,26.59,0,0,0,8.26.66c5.6-.4,11.11-2.19,16.52-4.19s10.8-4.31,16.48-6a47.28,47.28,0,0,1,8.73-1.79,27.67,27.67,0,0,1,9,.5,24.49,24.49,0,0,1,8.27,3.66,30.81,30.81,0,0,1,6.55,6.14,46.9,46.9,0,0,1,8,15.76,67.87,67.87,0,0,1,2.82,17.37A72.84,72.84,0,0,1,236,255.32a63.43,63.43,0,0,1-5.86,16.52A61.3,61.3,0,0,1,219.83,286a69.39,69.39,0,0,1-13.7,10.82A72.78,72.78,0,0,1,190.28,304Z"/><path class="cls-1" d="M302.35,214.49c3-4.43,6-8.91,8.79-13.49a149.5,149.5,0,0,0,7.75-14.09,80,80,0,0,0,3.13-7.4,41.56,41.56,0,0,0,2.08-7.7,14.5,14.5,0,0,0-.59-7.72,7.34,7.34,0,0,0-2.26-3,10,10,0,0,0-3.46-1.6c-2.52-.66-5.24-1-7.87-1.75a25.77,25.77,0,0,1-7.46-3.48,32.74,32.74,0,0,1-6.14-5.49,39.53,39.53,0,0,1-4.77-6.7,34.09,34.09,0,0,1-3.21-7.67,20.39,20.39,0,0,1-.62-8.51,15.2,15.2,0,0,1,4-7.83,27.56,27.56,0,0,1,6.75-5.24,57.93,57.93,0,0,1,15.63-5.75,88.62,88.62,0,0,1,16.37-2,106.27,106.27,0,0,1,16.44.78A104.56,104.56,0,0,1,363,109.18a95.32,95.32,0,0,1,15.39,5.87,120.59,120.59,0,0,1,14.3,8,94.94,94.94,0,0,1,13,10.09,62.9,62.9,0,0,1,10.58,12.73A40.53,40.53,0,0,1,422,161.5a37.63,37.63,0,0,1-1.46,16.57,45.35,45.35,0,0,1-7.91,14.49,61.38,61.38,0,0,1-11.91,11.26,74.07,74.07,0,0,1-29.81,12.77,62.11,62.11,0,0,1-16.28.88,64.37,64.37,0,0,1-15.9-3.42,77.16,77.16,0,0,1-27.49-16.91,52,52,0,0,1-10-12.75,16.42,16.42,0,0,1-2.24-7.93,5.8,5.8,0,0,1,1.69-4,9.73,9.73,0,0,1,3.76-1.91c2.62-.79,5.26-1.28,7.9-1.81l7.91-1.53c5.27-1,10.53-2.07,15.78-3.16s10.5-2.22,15.73-3.39c2.63-.57,5.22-1.24,7.9-1.7s5.33-.83,7.93-1.24l.23,1c-2.65.67-5.27,1.14-7.9,1.66s-5.23,1.13-7.86,1.67q-7.87,1.69-15.78,3.25t-15.83,3c-2.64.49-5.29.95-7.92,1.46s-5.27,1-7.79,1.79a8.86,8.86,0,0,0-3.38,1.67,4.69,4.69,0,0,0-1.35,3.28,15.41,15.41,0,0,0,2.19,7.37,50.64,50.64,0,0,0,9.94,12.34,75.54,75.54,0,0,0,27.13,16.33,62.62,62.62,0,0,0,15.53,3.19,58.89,58.89,0,0,0,15.78-1.05,71.76,71.76,0,0,0,28.74-12.8,58.83,58.83,0,0,0,11.28-10.95,42.79,42.79,0,0,0,7.24-13.72,33.75,33.75,0,0,0,1.1-15.26,37.17,37.17,0,0,0-5.61-14.26A56.47,56.47,0,0,0,403.08,136a90.12,90.12,0,0,0-12.68-9.32,120.87,120.87,0,0,0-13.95-7.41,99.47,99.47,0,0,0-14.77-5.34A111.9,111.9,0,0,0,330.56,110,99.26,99.26,0,0,0,315,111.47a54,54,0,0,0-14.77,4.59A24.56,24.56,0,0,0,294,120.3a12.27,12.27,0,0,0-3.59,6.12,17.4,17.4,0,0,0,.19,7.45,29.78,29.78,0,0,0,2.69,7.27,34,34,0,0,0,10,11.92,24.51,24.51,0,0,0,7,3.47c2.51.82,5.15,1.19,7.8,1.95a10.79,10.79,0,0,1,3.76,1.87,8.25,8.25,0,0,1,2.46,3.41,15.54,15.54,0,0,1,.46,8.16,42.77,42.77,0,0,1-2.25,7.78c-1,2.52-2.08,5-3.28,7.37A229.32,229.32,0,0,1,302.35,214.49Z"/><path class="cls-1" d="M475.67,127.18A71.61,71.61,0,0,1,495,122.13a52.41,52.41,0,0,1,10-.15,38.94,38.94,0,0,1,9.83,2,25,25,0,0,1,8.63,5.14,18.93,18.93,0,0,1,3.19,3.94,22.36,22.36,0,0,1,2,4.64,16.75,16.75,0,0,1,.26,10.08,13.32,13.32,0,0,1-2.44,4.52,15.61,15.61,0,0,1-3.91,3.34,36.87,36.87,0,0,1-9.43,3.73c-3.25.88-6.52,1.59-9.74,2.43a47.69,47.69,0,0,0-9.3,3.27,18.46,18.46,0,0,0-7.28,6.08,15.94,15.94,0,0,0-2.51,9,30.32,30.32,0,0,0,1.7,9.23,26.86,26.86,0,0,0,4.2,8.22,17.22,17.22,0,0,0,7.09,5.4,35.36,35.36,0,0,0,9.2,2.19,96.8,96.8,0,0,0,9.83.56c6.63.07,13.31-.16,20-.39s13.31-.67,20-1.39,13.34-1.65,20.14-1.32c3.38.11,6.75.56,10.07,1s6.65.94,10,1.61a61.56,61.56,0,0,1,9.84,2.75,26.4,26.4,0,0,1,4.7,2.34,11.74,11.74,0,0,1,4,3.92,8.14,8.14,0,0,1,.79,5.76,14.61,14.61,0,0,1-2.19,5,30,30,0,0,1-7.37,7.44,38.09,38.09,0,0,1-9.15,4.92,20.8,20.8,0,0,1-5.05,1.28c-1.74.22-3.48.18-5.2.26h-.1c-1.79-.22-3.55-.46-5.32-.75-.89-.15-1.77-.31-2.65-.49a18.81,18.81,0,0,1-2.66-.73l.33-.94a18.27,18.27,0,0,0,2.53.46c.87.11,1.75.21,2.63.29,1.75.16,3.53.28,5.28.36h-.1a18.74,18.74,0,0,0,4.74-1c1.54-.49,3.06-1,4.57-1.49a35.83,35.83,0,0,0,8.5-4.49,27.39,27.39,0,0,0,6.73-6.68,13,13,0,0,0,1.88-4.07,5.49,5.49,0,0,0-.43-4,9.26,9.26,0,0,0-3.06-3.11,24.18,24.18,0,0,0-4.23-2.2,58.11,58.11,0,0,0-9.41-2.82c-3.22-.72-6.5-1.28-9.79-1.78a89.3,89.3,0,0,0-9.87-1c-6.59-.31-13.2.54-19.85,1.34-3.32.4-6.66.73-10,1.07s-6.69.56-10,.81c-6.68.48-13.35,1-20.1,1.17a99.52,99.52,0,0,1-10.2-.22,35.45,35.45,0,0,1-10.3-2.17,21.61,21.61,0,0,1-4.83-2.63,20.36,20.36,0,0,1-3.95-3.86,27.74,27.74,0,0,1-4.84-9.55A25.72,25.72,0,0,1,481.7,180a22.91,22.91,0,0,1,3.76-9.8,20.07,20.07,0,0,1,8.05-6.49,49.39,49.39,0,0,1,9.65-3.19c3.27-.79,6.55-1.43,9.77-2.24a35.31,35.31,0,0,0,9.23-3.43,14.75,14.75,0,0,0,3.74-3.06,12.3,12.3,0,0,0,2.37-4.2,16,16,0,0,0-.12-9.66,22.13,22.13,0,0,0-1.93-4.54,18.65,18.65,0,0,0-3.05-3.87,24.38,24.38,0,0,0-8.41-5.16A44.08,44.08,0,0,0,495,122.27,71.44,71.44,0,0,0,475.67,127.18Z"/></svg>