<svg id="Layer_1" data-name="Layer 1" xmlns="http://www.w3.org/2000/svg" viewBox="0 0 460 527.15"><defs><style>.cls-1{fill:none;stroke:#fff;stroke-width:6px;}.cls-2{fill:#fff;}</style></defs><path class="cls-1" d="M230,145.49c111.66,0,167,36.85,167,125.66v256"/><path class="cls-1" d="M230,145.49c-111.66,0-167,36.85-167,125.66v256"/><path class="cls-2" d="M121.83,286.22h-4.51v30.72h4.51v1.28H108.06v-1.28h4.51V301.89H96.86v15.05h4.51v1.28H87.6v-1.28h4.51V286.22H87.6v-1.28h13.77v1.28H96.86V300.6h15.71V286.22h-4.51v-1.28h13.77Zm13.37,10.44a7.87,7.87,0,0,1,6.36,2.61,9.7,9.7,0,0,1,2.28,6.7H130.22a4.41,4.41,0,0,0-.05.81v.85a13.35,13.35,0,0,0,1.52,6.5,5.4,5.4,0,0,0,5.08,2.62c2.75,0,4.73-1.4,5.93-4.18l1.05.76a8.37,8.37,0,0,1-8.17,5.27,9.54,9.54,0,0,1-7.5-3,11.47,11.47,0,0,1-2.71-7.83,12,12,0,0,1,2.66-7.84A8.9,8.9,0,0,1,135.2,296.66Zm-4.84,8h8.73a10.89,10.89,0,0,0-1-4.42,3.55,3.55,0,0,0-3.23-2.37q-3.6,0-4.5,6.82Zm42.22,2.47v.19a10.32,10.32,0,0,1,4.18,1.37,4.14,4.14,0,0,1,1.9,3.47,5.2,5.2,0,0,1-.9,3.08,5.11,5.11,0,0,1-2.38,1.85,17.68,17.68,0,0,1-2.94.86,18.84,18.84,0,0,1-3.18.24H157.91v-1.28h3.56V298.37h-3.56v-1.28h11.4q8.73,0,8.73,4.94a4.4,4.4,0,0,1-1.61,3.51,7.4,7.4,0,0,1-3.85,1.62Zm-3.51-8.79H166v8.26h3.28q4.08,0,4.08-4.36,0-3.87-4.29-3.87ZM166,307.91v9h3a5.83,5.83,0,0,0,2.37-.43c1.71-.67,2.57-2.11,2.56-4.32q0-4.28-4.6-4.28Zm33.7,4.85,1,.61a10.3,10.3,0,0,1-3.41,3.8,8.52,8.52,0,0,1-4.7,1.38,9.7,9.7,0,0,1-7.51-3.13,11.4,11.4,0,0,1-2.8-7.79,11,11,0,0,1,2.85-7.88,10.51,10.51,0,0,1,11.73-2.18,6.6,6.6,0,0,1,3,2.65,4.05,4.05,0,0,1,.62,2,2.52,2.52,0,0,1-.72,1.8,2.21,2.21,0,0,1-1.71.71,2.36,2.36,0,0,1-1.66-.61,2.17,2.17,0,0,1-.61-1.62,3.09,3.09,0,0,1,1.8-2.7,5.2,5.2,0,0,0-4.27-1.81,5,5,0,0,0-3,.95,5.69,5.69,0,0,0-1.95,2.42,14.39,14.39,0,0,0-.9,3,16.94,16.94,0,0,0-.28,3.18,12.66,12.66,0,0,0,1.61,6.51,5.44,5.44,0,0,0,5,2.7q3.66,0,5.94-4Zm14.15-16.1a7.87,7.87,0,0,1,6.36,2.61,9.7,9.7,0,0,1,2.28,6.7H208.85a3.66,3.66,0,0,0,0,.81v.85a13.35,13.35,0,0,0,1.52,6.5,5.4,5.4,0,0,0,5.08,2.62c2.75,0,4.73-1.4,5.93-4.18l1,.76a8.37,8.37,0,0,1-8.17,5.27,9.54,9.54,0,0,1-7.5-3,11.47,11.47,0,0,1-2.71-7.83,12,12,0,0,1,2.66-7.84,8.9,8.9,0,0,1,7.17-3.27Zm-4.84,8h8.73a10.89,10.89,0,0,0-1-4.42,3.55,3.55,0,0,0-3.23-2.37q-3.62,0-4.51,6.82Zm27.79-6.32v-1.28h17.85v8.12h-1.28l-1.8-6.84h-6.7v18.57h3.8v1.28H236.78v-1.28h3.56V298.37Zm20.66,32.29v-1.29H261v-31h-3.56v-1.28H261l4.47-.66v5q1.89-4.8,7.31-4.8,4.65,0,6.88,2.95A11.87,11.87,0,0,1,282,307.2a12.9,12.9,0,0,1-2.61,8,8.3,8.3,0,0,1-6.93,3.42,7.13,7.13,0,0,1-6.93-4.18v14.95h3.79v1.29Zm8.07-24.55v4.18a7.11,7.11,0,0,0,1.71,4.51,5.21,5.21,0,0,0,4.08,2.09,4.4,4.4,0,0,0,3.51-1.66,8.17,8.17,0,0,0,1.85-3.66,17.93,17.93,0,0,0,.48-4.13,18.87,18.87,0,0,0-.24-3,12.31,12.31,0,0,0-.85-2.85,5.08,5.08,0,0,0-1.76-2.28,4.84,4.84,0,0,0-2.9-.85,4.93,4.93,0,0,0-4.22,2.52,9.1,9.1,0,0,0-1.68,5.16Zm45.91-9v1.28h-3.56v18.57h3.56v1.28H300v-1.28h3.32V302.22l-9.49,13.43v1.29h3.32v1.28H285.79v-1.28h3.56V298.37h-3.56v-1.28h11.39v1.28h-3.32v15.05L303.35,300v-1.62H300V297.1Zm3.8,8.78a28.85,28.85,0,0,1,.43-5A27.09,27.09,0,0,1,317,296a10.86,10.86,0,0,1,2.8-4.18,9.21,9.21,0,0,1,4.42-2.28c.66-.15,1.37-.3,2.13-.42.49-.1,1-.19,1.47-.24.73-.13,1.3-.22,1.71-.28a6.1,6.1,0,0,0,3-1.19,5.3,5.3,0,0,0,1.52-2.8l1.33.19a12.67,12.67,0,0,1-1.28,5.08,5.39,5.39,0,0,1-2.23,2.28,10.21,10.21,0,0,1-3.42,1,33.66,33.66,0,0,0-7.22,1.47q-3.8,1.86-3.79,7.51a10.62,10.62,0,0,0,.33,2.75A8.81,8.81,0,0,1,321,299.7a8.7,8.7,0,0,1,5.7-2.09c3.22,0,5.68.92,7.35,2.76a10.55,10.55,0,0,1,2.57,7.5,11,11,0,0,1-2.85,7.74,9.69,9.69,0,0,1-7.41,3q-5.46,0-8.3-3.6a14.68,14.68,0,0,1-2.84-9.14Zm14-6.07a4.36,4.36,0,0,0-2.8-.91,4.62,4.62,0,0,0-2.85.91,5.79,5.79,0,0,0-1.75,2.37,14.89,14.89,0,0,0-.81,2.94,18.87,18.87,0,0,0,0,6,15.82,15.82,0,0,0,.81,2.94,5.83,5.83,0,0,0,1.71,2.42,4.49,4.49,0,0,0,2.8.9,4.29,4.29,0,0,0,2.75-.9,5.31,5.31,0,0,0,1.76-2.37,14,14,0,0,0,.8-2.9,18.87,18.87,0,0,0,0-6,13.57,13.57,0,0,0-.71-2.89,5,5,0,0,0-1.77-2.5Zm39.9-1.43v18.57h3.32v1.28H361v-1.28h3.56V298.37H361v-1.28h11.4v1.28ZM352,297.08v1.28h-3.56v8.17a19.25,19.25,0,0,1,4.08-.38q8,0,8,5.6a5.69,5.69,0,0,1-2.24,4.8,8.74,8.74,0,0,1-5.36,1.66H340.26v-1.28h3.56V298.37h-3.56v-1.28Zm-3.56,10.73v9.12h3q4.32,0,4.32-5a4.78,4.78,0,0,0-1.09-3.32,4.37,4.37,0,0,0-3.23-1.14,13.68,13.68,0,0,0-3.06.35Zm-198.2,38.72v1.28h-3.56v18.56h3.56v1.29H138.74v-1.29h3.32v-8.54h-9.5v8.54h3.33v1.29h-11.4v-1.29h3.56V347.82h-3.56v-1.28h11.4v1.28h-3.33v8.74h9.5v-8.74h-3.32v-1.28Zm11.73,9.59a13.35,13.35,0,0,1,4.56.71v-5.7a3.9,3.9,0,0,0-.9-2.84,3.6,3.6,0,0,0-2.8-1,6.09,6.09,0,0,0-3.9,1.23,3.22,3.22,0,0,1,1.24.81,2.63,2.63,0,0,1,.52,1.71,2.28,2.28,0,0,1-2.19,2.37h-.18a2.13,2.13,0,0,1-1.67-.71,2.39,2.39,0,0,1-.66-1.76,3.92,3.92,0,0,1,2.52-3.56,11,11,0,0,1,5.12-1.33q7.41,0,7.41,5.51v12.44c0,1.36.5,2,1.52,2a2,2,0,0,0,1.33-.52,9,9,0,0,0,.85-1l.76.76a5.39,5.39,0,0,1-4.51,2.71,5.27,5.27,0,0,1-2.47-.57,3.81,3.81,0,0,1-1.75-2,9.61,9.61,0,0,1-6.46,2.56,6.64,6.64,0,0,1-4.51-1.56,5.53,5.53,0,0,1-1.76-4.28,5.12,5.12,0,0,1,2.28-4.65,10.41,10.41,0,0,1,5.59-1.37Zm-3.18,5.55a4.59,4.59,0,0,0,1,3.14,3.83,3.83,0,0,0,3,1.14,4.77,4.77,0,0,0,2-.43,5.2,5.2,0,0,0,1.71-1.09V358c-.6-.22-1.2-.41-1.81-.57a10.86,10.86,0,0,0-1.89-.14,3.81,3.81,0,0,0-3,1.18,4.63,4.63,0,0,0-1.07,3.21ZM214,346.54v1.28h-3.56v18.56H214v1.29H202.63v-1.29H206V347.82h-9.64v18.56h3.32v1.29H188.24v-1.29h3.56V347.82h-3.56v-1.28Zm14.48-.43a10.16,10.16,0,0,1,7.79,3.09,10.84,10.84,0,0,1,2.89,7.83,11,11,0,0,1-3,7.93,11.41,11.41,0,0,1-15.52.09,11.16,11.16,0,0,1-2.85-8,10.83,10.83,0,0,1,2.94-7.88,10.31,10.31,0,0,1,7.77-3.06Zm0,20.65a4.4,4.4,0,0,0,2.85-.95,6.15,6.15,0,0,0,1.85-2.51A17.1,17.1,0,0,0,234,354a14.47,14.47,0,0,0-.86-3.09,5.55,5.55,0,0,0-1.8-2.52,4.53,4.53,0,0,0-2.9-.95,4.46,4.46,0,0,0-2.85,1,5.83,5.83,0,0,0-1.8,2.52A15.67,15.67,0,0,0,223,354a16.84,16.84,0,0,0-.29,3.09,13.15,13.15,0,0,0,1.52,6.79,4.68,4.68,0,0,0,4.22,2.88Zm16.42,1.29a3.83,3.83,0,0,1-2.46-.76,3.11,3.11,0,0,1-.24-4.13,2.33,2.33,0,0,1,1.85-.81,2.1,2.1,0,0,1,2.18,2v.16a1.94,1.94,0,0,1-1.28,2,.57.57,0,0,0,.38.09c1.39,0,2.49-.93,3.32-2.8.13-.41.27-1,.43-1.66.32-2.25.57-5.17.76-8.78v-1.24a7.15,7.15,0,0,1,.1-1.18c0-.25,0-.71,0-1.28s.05-1.05.05-1.33l-4.18-.48v-1.28h19.85v1.28h-3.56v18.56h3.56v1.29h-11.4v-1.29h3.33V347.82h-6.08c0,.6-.08,1.47-.14,2.61,0,.64-.08,1.43-.15,2.38V354a10.87,10.87,0,0,1,0,1.14c-.1,1.46-.19,2.76-.28,3.9s-.19,1.82-.29,2.51a13.43,13.43,0,0,1-.57,2.33,6.75,6.75,0,0,1-1,2.18,4.93,4.93,0,0,1-4.13,2Zm36.23-21.51v1.28h-3.56V356a20.9,20.9,0,0,1,7.07-.15,11.21,11.21,0,0,1,2.66.81,4.54,4.54,0,0,1,2.09,1.76,5,5,0,0,1,.76,2.8,5.58,5.58,0,0,1-2.33,4.89,9.88,9.88,0,0,1-5.74,1.57H269.47v-1.29H273V347.82h-3.56v-1.28Zm-3.56,10.78v9.06h3a4.63,4.63,0,0,0,3.56-1.33,5.35,5.35,0,0,0,1.23-3.7q0-4.46-4.51-4.46a17,17,0,0,0-3.26.43Zm17.37-3.61h-1.28v-7.12h1.28l.57,2.13c1.3-1.74,3.32-2.61,6.08-2.61a13.06,13.06,0,0,1,2.33.24,6,6,0,0,1,3.7,2.37,4.34,4.34,0,0,1,.57,2.33,4.48,4.48,0,0,1-1.66,3.7,8.18,8.18,0,0,1-4.13,1.62v.19a10.29,10.29,0,0,1,4.65,1.37,3.86,3.86,0,0,1,2,3.56,5.51,5.51,0,0,1-1.42,3.85,7.88,7.88,0,0,1-3.38,2.14,14.33,14.33,0,0,1-4.17.57,10.73,10.73,0,0,1-4.94-1.14A3.8,3.8,0,0,1,293,363.3a2.27,2.27,0,0,1,.66-1.71,2.37,2.37,0,0,1,1.76-.71,2.17,2.17,0,0,1,1.66.61,2.55,2.55,0,0,1,.52,1.62,2.48,2.48,0,0,1-.43,1.47,2.64,2.64,0,0,1-1.23.9,4.89,4.89,0,0,0,3.61,1.24,4.66,4.66,0,0,0,3.56-1.33,5.38,5.38,0,0,0,1.23-3.71q0-4.41-4.79-4.41h-1.33v-1.33h1.66a3.08,3.08,0,0,0,2.66-1.33,5,5,0,0,0,1-3.09q0-4-3.57-4a3.83,3.83,0,0,0-3.37,1.9,11.15,11.15,0,0,0-1.69,4.29Zm21.33,26.87a3.9,3.9,0,0,1-2.71-.95,3.11,3.11,0,0,1-1-2.52,2.83,2.83,0,0,1,.76-2.09,2.21,2.21,0,0,1,1.8-.85,2.44,2.44,0,0,1,1.71.62,2.12,2.12,0,0,1,.66,1.61,2.36,2.36,0,0,1-1.52,2.42,1.08,1.08,0,0,0,.86.29q2.75,0,5.93-8.45l.9-2.28-9.77-20.56h-3.57v-1.28h12.11v1.28h-3.7l7.17,15.48,6.55-15.48h-3.33v-1.28h8.36v1.28h-3.56l-9.31,21.93c-1,2.35-1.66,3.83-1.94,4.47-.44.92-.81,1.63-1.09,2.13a15.66,15.66,0,0,1-1.29,1.95,5.55,5.55,0,0,1-1.8,1.71,4.35,4.35,0,0,1-2.2.57Z"/></svg>