<svg id="Layer_1" data-name="Layer 1" xmlns="http://www.w3.org/2000/svg" viewBox="0 0 196.26 197.59"><defs><style>.cls-1{fill:#fff;}</style></defs><path class="cls-1" d="M143.79,160c23.25-19.1,33.78-61.66,8.26-94.85A70.66,70.66,0,0,0,52.8,52.42C21,77,18.31,120.52,37.3,146.43c-5.28-15.29-5.65-30.56.42-45.6a59.8,59.8,0,0,1,31.8-33A60.92,60.92,0,0,1,138.3,81.27C158.39,102.16,160.15,127.39,143.79,160Z"/><path class="cls-1" d="M94.12,160a44.44,44.44,0,0,1,44.32-44.3,44.45,44.45,0,0,1-44.32-44.3,44.44,44.44,0,0,1-44.3,44.3A44.42,44.42,0,0,1,94.12,160Z"/></svg>