<svg id="Layer_1" data-name="Layer 1" xmlns="http://www.w3.org/2000/svg" viewBox="0 0 196.26 197.59"><defs><style>.cls-1{fill:#fff;}</style></defs><path class="cls-1" d="M153.12,86.06H162v25.1h-8.73c-.22-2.27-.46-4.64-.72-7.31h-49.1v48.8l7.14.64v9.3h-25v-9.28l7.37-.6V103.93H43.78c-.17,2.24-.35,4.51-.56,7.18H34.28V86.05h8.88c.21,2.47.41,4.87.63,7.49h49V44.41l-7.27-.58V35h25.05v8.83l-7,.49v49.1h49C152.76,91.11,152.93,88.7,153.12,86.06Z"/><path class="cls-1" d="M55.4,77V69.71H69.27V55.51h7.61v14h14v7.26H77v14H69.65V77Z"/><path class="cls-1" d="M127.59,142.27h-7.2v-14h-14v-7.27h13.53V107h7.28V120.6h14.43V128h-14Z"/><path class="cls-1" d="M106.19,76.82V69.56h13.92V55.41h7.19V69.34h14.16v7.33H127.41v14.1h-7.26v-14Z"/><path class="cls-1" d="M69,121V107h7v13.6H90.05v7.27H76.31v14.41H69.14V128.16H54.84V121Z"/></svg>