<svg id="Layer_1" data-name="Layer 1" xmlns="http://www.w3.org/2000/svg" viewBox="0 0 196.26 197.59"><defs><style>.cls-1{fill:#fff;}</style></defs><path class="cls-1" d="M94.33,93.59c-.91-11.4-1.77-22.27-2.68-33.59h14.41l-2.38,30.24c9.39-3.78,18.08-7.87,27.15-10.76,8.69-2.77,17.75-2.33,26.57.29,7.29,2.17,11.3,7,12.18,14.69,1.74,15.32-3.59,22.45-18.92,24.64-15.08,2.16-28.57-2.43-41.35-9.9l-5.74-3.39c.84,11.18,1.61,21.33,2.39,31.78H91.73c.87-11.16,1.73-22,2.64-33.71l-68,9.28V84.3Zm10.48,5.13c10.51,8.7,21.47,14.47,35.2,13.06,8.74-.9,12.38-4.66,12.42-13s-3.57-12.18-12.29-13.1C126.43,84.25,115.39,89.94,104.81,98.72Z"/></svg>