<svg id="Layer_1" data-name="Layer 1" xmlns="http://www.w3.org/2000/svg" viewBox="0 0 196.26 197.59"><defs><style>.cls-1{fill:#fff;}</style></defs><path class="cls-1" d="M23.87,124.64c5.32,5.5,10.51,11.85,16.67,17,10.55,8.88,22.74,12.21,36.32,7.7C84,147,90.11,143.11,91,134.93s-3.78-14-10.51-17.82c-3.53-2-7.71-4-11.61-4-6.95-.06-9.39-4.13-11.39-9.83,4.71-1.86,9.6-3.4,14.12-5.68a57.57,57.57,0,0,0,12.08-7.75c4.26-3.74,4-9.14-1-11.66a27.42,27.42,0,0,0-14.62-3c-7.81.91-15.41,3.66-23.7,5.79-2.25-3.94-4.87-8.51-7.82-13.64C50,58.47,63.64,51.14,80.31,55.58,94.81,59.43,101,71.39,96.53,85.71a36.41,36.41,0,0,1-13.35,18.68c7.63,6.13,16,5.42,21.93-1.85a49,49,0,0,0,4-6.3c.75-1.29,1.27-2.71,2-4,5.9-11,13.89-19.53,27.3-19.52,13.62,0,22.46,8.34,28.66,19.48,10.27,18.45,5.09,49-10.35,63.43-8.33,7.79-18.8,9-28.37,2.89-10.42-6.69-15.2-16.51-15.46-29.66,2.22,1.52,3.55,2.9,5.16,3.44,5.73,1.93,11.55,5,17.35,5.06,17.85.14,32.78-24.75,25.15-40.89C155,84.79,143,80.84,132.28,88c-4.83,3.24-8.78,8-12.53,12.6-5.63,6.86-11,13.87-20.34,16.49,1.29,4,2.79,7.83,3.76,11.79,4.06,16.62,0,28.47-12.23,36.38-14.64,9.48-31.52,9.2-44.22-.92-12-9.56-17.72-23-22.21-37.08C24.17,126.21,24,125.09,23.87,124.64Z"/><path class="cls-1" d="M146.5,41.42a27.2,27.2,0,0,1,4,2.41c7.6,6.57,10.58,13-.14,19.62a48.79,48.79,0,0,1-40.79,5.46C95.71,64.77,89.84,53.18,87,39.58c8.07,8.23,16.84,15,29,14.93C127.82,54.49,137.35,49,146.5,41.42Z"/><path class="cls-1" d="M118.84,47.77A11.17,11.17,0,1,1,130.29,36.6,11.12,11.12,0,0,1,118.84,47.77Z"/></svg>