<svg id="Layer_1" data-name="Layer 1" xmlns="http://www.w3.org/2000/svg" viewBox="0 0 196.26 197.59"><defs><style>.cls-1{fill:#fff;}</style></defs><path class="cls-1" d="M92.93,102.6l-33.6,2.67V90.87l30.25,2.38C85.8,83.86,81.71,75.17,78.82,66.1c-2.77-8.69-2.33-17.76.29-26.58,2.17-7.29,7-11.3,14.68-12.17,15.33-1.74,22.46,3.59,24.65,18.92,2.16,15.08-2.43,28.57-9.91,41.35-.9,1.54-1.81,3.07-3.38,5.74L136.93,91V105.2l-33.71-2.65c3.14,23,6.19,45.33,9.28,68H83.64C86.72,148.05,89.76,125.77,92.93,102.6Zm5.13-10.48c8.7-10.51,14.47-21.48,13.06-35.2-.9-8.74-4.66-12.39-13-12.43S86,48.06,85,56.78C83.59,70.5,89.28,81.54,98.06,92.12Z"/></svg>