<svg id="Layer_1" data-name="Layer 1" xmlns="http://www.w3.org/2000/svg" viewBox="0 0 196.26 197.59"><defs><style>.cls-1{fill:#fff;}</style></defs><path class="cls-1" d="M157.32,146.45c-19.1,23.25-61.66,33.79-94.85,8.26A70.66,70.66,0,0,1,49.76,55.46c24.6-31.77,68.1-34.49,94-15.5-15.29-5.28-30.57-5.64-45.6.42a59.85,59.85,0,0,0-33,31.8A60.94,60.94,0,0,0,78.61,141C99.5,161.05,124.72,162.81,157.32,146.45Z"/><path class="cls-1" d="M157.32,96.79A44.44,44.44,0,0,0,113,141.1a44.44,44.44,0,0,0-44.3-44.31A44.44,44.44,0,0,0,113,52.49,44.44,44.44,0,0,0,157.32,96.79Z"/></svg>