<svg id="Layer_1" data-name="Layer 1" xmlns="http://www.w3.org/2000/svg" viewBox="0 0 196.26 197.59"><defs><style>.cls-1{fill:#fff;}</style></defs><path class="cls-1" d="M72.29,24.54c-5.51,5.32-11.85,10.5-17,16.66C46.37,51.75,43,63.94,47.56,77.52,49.93,84.67,53.82,90.78,62,91.66s14-3.77,17.82-10.51c2-3.53,4-7.71,4-11.61.06-6.94,4.13-9.39,9.83-11.39,1.86,4.71,3.4,9.6,5.68,14.12a57.57,57.57,0,0,0,7.75,12.08c3.73,4.26,9.13,4,11.65-1a27.24,27.24,0,0,0,3-14.62c-.91-7.81-3.65-15.4-5.78-23.69l13.64-7.82c8.87,13.43,16.19,27.07,11.76,43.73-3.86,14.5-15.82,20.69-30.13,16.23A36.55,36.55,0,0,1,92.53,83.85c-6.12,7.62-5.41,16,1.86,21.92a48.36,48.36,0,0,0,6.3,4c1.29.75,2.71,1.27,4,2,11,5.91,19.54,13.89,19.53,27.3,0,13.62-8.35,22.46-19.48,28.66-18.45,10.28-49,5.1-63.43-10.35-7.79-8.33-9-18.8-2.89-28.37C45.12,118.58,55,113.8,68.1,113.54c-1.52,2.22-2.9,3.55-3.44,5.16-1.93,5.74-5,11.55-5.06,17.36-.15,17.84,24.74,32.77,40.88,25.14,11.65-5.51,15.61-17.57,8.44-28.25-3.25-4.84-8-8.78-12.61-12.54-6.86-5.63-13.86-11-16.48-20.34-4,1.29-7.83,2.79-11.8,3.76-16.62,4.06-28.46,0-36.38-12.22-9.47-14.65-9.19-31.53.92-44.23,9.57-12,23-17.71,37.08-22.21A26.54,26.54,0,0,1,72.29,24.54Z"/><path class="cls-1" d="M155.51,147.16a27.86,27.86,0,0,1-2.41,4c-6.57,7.59-13,10.57-19.62-.15A48.83,48.83,0,0,1,128,110.25c4.15-13.88,15.74-19.74,29.33-22.59-8.22,8.07-15,16.85-14.92,29C142.44,128.48,147.93,138,155.51,147.16Z"/><path class="cls-1" d="M149.15,119.5a11.12,11.12,0,0,1,11.13-11,11.22,11.22,0,1,1-11.13,11Z"/></svg>